<?xml version="1.0" encoding="UTF-8"?>
<!DOCTYPE svg PUBLIC "-//W3C//DTD SVG 1.1//EN" "http://www.w3.org/Graphics/SVG/1.1/DTD/svg11.dtd">
<svg xmlns="http://www.w3.org/2000/svg" version="1.1" width="500px" height="500px" style="shape-rendering:geometricPrecision; text-rendering:geometricPrecision; image-rendering:optimizeQuality; fill-rule:evenodd; clip-rule:evenodd" xmlns:xlink="http://www.w3.org/1999/xlink">
<g><path style="opacity:0.004" fill="#fefffe" d="M 111.5,8.5 C 112.833,9.16667 112.833,9.16667 111.5,8.5 Z"/></g>
<g><path style="opacity:0.004" fill="#fefffe" d="M 315.5,22.5 C 316.833,23.1667 316.833,23.1667 315.5,22.5 Z"/></g>
<g><path style="opacity:0.004" fill="#fefffe" d="M 489.5,27.5 C 490.833,28.1667 490.833,28.1667 489.5,27.5 Z"/></g>
<g><path style="opacity:0.004" fill="#fefffe" d="M 180.5,31.5 C 181.833,32.1667 181.833,32.1667 180.5,31.5 Z"/></g>
<g><path style="opacity:0.004" fill="#fefffe" d="M 79.5,32.5 C 80.8333,33.1667 80.8333,33.1667 79.5,32.5 Z"/></g>
<g><path style="opacity:0.004" fill="#fefffe" d="M 57.5,37.5 C 58.8333,38.1667 58.8333,38.1667 57.5,37.5 Z"/></g>
<g><path style="opacity:0.004" fill="#fefffe" d="M 394.5,45.5 C 395.833,46.1667 395.833,46.1667 394.5,45.5 Z"/></g>
<g><path style="opacity:0.004" fill="#fefffe" d="M 104.5,49.5 C 105.833,50.1667 105.833,50.1667 104.5,49.5 Z"/></g>
<g><path style="opacity:0.004" fill="#fefffe" d="M 159.5,65.5 C 160.833,66.1667 160.833,66.1667 159.5,65.5 Z"/></g>
<g><path style="opacity:0.004" fill="#fefffe" d="M 4.5,74.5 C 5.83333,75.1667 5.83333,75.1667 4.5,74.5 Z"/></g>
<g><path style="opacity:0.004" fill="#fefffe" d="M 334.5,82.5 C 335.833,83.1667 335.833,83.1667 334.5,82.5 Z"/></g>
<g><path style="opacity:1" fill="#2e2126" d="M 399.5,164.5 C 397.468,163.952 396.468,162.619 396.5,160.5C 392.901,161.317 390.901,163.65 390.5,167.5C 388.604,168.466 386.604,168.799 384.5,168.5C 383.833,168.167 383.167,167.833 382.5,167.5C 374.93,156.26 366.597,145.594 357.5,135.5C 354.167,132.833 350.833,130.167 347.5,127.5C 333.733,116.277 318.4,107.61 301.5,101.5C 289.983,96.954 277.983,93.954 265.5,92.5C 238.037,89.4228 211.704,93.4228 186.5,104.5C 138.6,125.29 109.433,161.29 99,212.5C 98.5004,219.492 98.3337,226.492 98.5,233.5C 96.087,234.68 95.087,236.68 95.5,239.5C 93.2133,239.724 91.0466,240.391 89,241.5C 88.0497,240.978 87.2164,240.311 86.5,239.5C 85.1667,244.833 85.1667,250.167 86.5,255.5C 87.2508,254.624 87.7508,253.624 88,252.5C 88.6667,255.167 89.3333,257.833 90,260.5C 90.3333,258.833 90.6667,257.167 91,255.5C 91.6946,257.722 92.5279,259.889 93.5,262C 91.8947,263.922 92.228,265.089 94.5,265.5C 94.8751,267.698 95.5418,269.698 96.5,271.5C 96.9628,274.221 97.6295,276.888 98.5,279.5C 98.8975,282.446 99.8975,285.113 101.5,287.5C 103.14,292.861 106.64,296.528 112,298.5C 112.483,299.448 112.649,300.448 112.5,301.5C 114.124,301.36 115.29,302.027 116,303.5C 124.44,302.685 132.94,302.018 141.5,301.5C 141.281,300.325 141.614,299.325 142.5,298.5C 145.43,297.547 147.763,295.88 149.5,293.5C 151.5,291.5 153.5,289.5 155.5,287.5C 159.104,285.712 161.77,283.045 163.5,279.5C 165.474,276.518 167.474,273.518 169.5,270.5C 169.833,270.5 170.167,270.5 170.5,270.5C 170.343,271.873 170.51,273.207 171,274.5C 172.943,276.151 174.443,278.151 175.5,280.5C 176.325,281.386 177.325,281.719 178.5,281.5C 178.753,279.173 178.086,277.173 176.5,275.5C 177.991,274.756 179.491,274.09 181,273.5C 181.889,270.313 182.722,267.147 183.5,264C 181.671,262.462 180.171,262.962 179,265.5C 178.833,265 178.667,264.5 178.5,264C 179.535,262.726 180.702,261.56 182,260.5C 182.226,256.113 182.726,251.779 183.5,247.5C 182.371,245.471 182.871,245.137 185,246.5C 185.333,250.5 185.667,254.5 186,258.5C 187,257.833 188,257.167 189,256.5C 189.333,252.167 189.667,247.833 190,243.5C 190.5,243 191,242.5 191.5,242C 199.743,241.662 207.909,240.829 216,239.5C 218.5,239.667 221,239.833 223.5,240C 222.584,240.374 221.75,240.874 221,241.5C 218.667,241.167 216.333,240.833 214,240.5C 206.879,242.466 199.712,243.966 192.5,245C 205.76,246.431 218.926,245.931 232,243.5C 235.569,243.286 238.902,243.953 242,245.5C 258.676,244.48 277.01,244.48 297,245.5C 299.877,245.437 300.711,246.437 299.5,248.5C 265.329,248.168 231.329,248.502 197.5,249.5C 195.748,249.418 194.748,250.251 194.5,252C 195.896,255.416 197.063,258.916 198,262.5C 198.377,263.942 199.21,264.942 200.5,265.5C 203.084,269.666 205.417,274 207.5,278.5C 209.709,283.381 213.043,287.381 217.5,290.5C 223.232,296.034 229.899,300.034 237.5,302.5C 238.347,303.966 239.68,304.8 241.5,305C 248.567,306.193 255.233,305.36 261.5,302.5C 271.461,300.397 279.127,294.897 284.5,286C 286.527,284.121 288.86,282.954 291.5,282.5C 291.263,281.209 291.596,280.209 292.5,279.5C 293.725,280.937 294.725,282.604 295.5,284.5C 296.833,283.833 298.167,283.167 299.5,282.5C 302.334,277.686 304.668,272.686 306.5,267.5C 307.995,266.295 309.328,266.295 310.5,267.5C 311.675,267.281 312.675,267.614 313.5,268.5C 314.189,270.444 314.689,272.444 315,274.5C 315.925,275.047 316.758,275.713 317.5,276.5C 316.391,278.385 315.557,280.385 315,282.5C 312.083,280.607 308.916,280.107 305.5,281C 307.193,283.69 309.527,285.69 312.5,287C 311.975,287.692 311.308,288.192 310.5,288.5C 307.921,286.669 305.254,285.002 302.5,283.5C 301.456,286.569 299.456,288.736 296.5,290C 298.556,290.311 300.556,290.811 302.5,291.5C 303.308,291.192 303.975,290.692 304.5,290C 312.703,289.212 320.87,289.379 329,290.5C 332.18,289.161 334.014,286.827 334.5,283.5C 337.233,286.239 340.233,288.573 343.5,290.5C 344.06,293.275 345.727,295.108 348.5,296C 353.053,298.89 358.053,300.39 363.5,300.5C 367.54,302.117 371.873,302.95 376.5,303C 373.774,303.182 371.107,303.682 368.5,304.5C 373.05,305.8 377.55,305.8 382,304.5C 383.399,305.227 384.899,305.727 386.5,306C 382.589,309.712 378.089,310.879 373,309.5C 369.477,309.837 365.977,310.337 362.5,311C 362.833,311.333 363.167,311.667 363.5,312C 368.167,312.667 372.833,312.667 377.5,312C 382.735,310.975 387.735,309.475 392.5,307.5C 376.228,316.965 359.895,316.799 343.5,307C 337.297,303.803 331.964,299.47 327.5,294C 316.5,293.333 305.5,293.333 294.5,294C 286.323,303.367 276.656,310.534 265.5,315.5C 251.298,320.215 237.631,319.049 224.5,312C 219.471,308.49 214.471,304.99 209.5,301.5C 208.094,298.586 206.094,296.086 203.5,294C 191.486,293.167 179.486,293.334 167.5,294.5C 148.511,314.416 126.511,318.75 101.5,307.5C 100.055,305.937 98.3885,304.604 96.5,303.5C 83.9741,291.276 78.3075,276.276 79.5,258.5C 68.6622,260.762 62.3289,256.595 60.5,246C 62.3535,235.389 68.6868,231.222 79.5,233.5C 84.8609,161.576 120.861,112.076 187.5,85C 251.099,63.3229 309.099,73.3229 361.5,115C 377.698,128.948 390.364,145.448 399.5,164.5 Z"/></g>
<g><path style="opacity:1" fill="#f7f6f0" d="M 265.5,92.5 C 268.045,94.568 271.045,95.9013 274.5,96.5C 270.893,97.4892 267.226,97.8226 263.5,97.5C 252.61,97.0616 241.943,97.7283 231.5,99.5C 194.156,104.49 162.823,120.823 137.5,148.5C 137.5,147.167 137.5,145.833 137.5,144.5C 140.957,144.04 142.623,142.04 142.5,138.5C 143.552,138.649 144.552,138.483 145.5,138C 145.167,137.667 144.833,137.333 144.5,137C 150.797,131.982 157.13,126.315 163.5,120C 169.145,117.7 174.812,115.533 180.5,113.5C 182.335,112.572 182.668,111.406 181.5,110C 183.424,108.25 185.091,106.417 186.5,104.5C 211.704,93.4228 238.037,89.4228 265.5,92.5 Z"/></g>
<g><path style="opacity:0.004" fill="#fefffe" d="M 350.5,93.5 C 351.833,94.1667 351.833,94.1667 350.5,93.5 Z"/></g>
<g><path style="opacity:1" fill="#f4e0c3" d="M 265.5,92.5 C 277.983,93.954 289.983,96.954 301.5,101.5C 292.693,102.003 284.026,101.336 275.5,99.5C 275.167,99.5 274.833,99.5 274.5,99.5C 270.833,98.8333 267.167,98.1667 263.5,97.5C 267.226,97.8226 270.893,97.4892 274.5,96.5C 271.045,95.9013 268.045,94.568 265.5,92.5 Z"/></g>
<g><path style="opacity:1" fill="#eec079" d="M 263.5,97.5 C 267.167,98.1667 270.833,98.8333 274.5,99.5C 260.167,99.5 245.833,99.5 231.5,99.5C 241.943,97.7283 252.61,97.0616 263.5,97.5 Z"/></g>
<g><path style="opacity:1" fill="#feb357" d="M 231.5,99.5 C 245.833,99.5 260.167,99.5 274.5,99.5C 274.833,99.5 275.167,99.5 275.5,99.5C 277.617,101.655 280.284,102.655 283.5,102.5C 284.058,103.79 285.058,104.623 286.5,105C 283.167,105.333 279.833,105.667 276.5,106C 273.992,108.535 274.826,109.702 279,109.5C 281.609,109.625 283.942,108.958 286,107.5C 287.806,108.76 289.639,109.927 291.5,111C 290.069,113.468 288.736,115.968 287.5,118.5C 281.824,118.334 276.157,118.501 270.5,119C 268.859,120.129 267.859,121.629 267.5,123.5C 266.115,124.574 264.949,125.907 264,127.5C 263.383,126.551 263.549,125.718 264.5,125C 263.214,122.907 261.714,121.073 260,119.5C 258.72,119.613 257.887,120.28 257.5,121.5C 259.54,127.842 257.207,130.342 250.5,129C 250.167,128.667 249.833,128.333 249.5,128C 253.754,126.895 255.42,124.061 254.5,119.5C 249.5,119.5 244.5,119.5 239.5,119.5C 239.813,116.753 239.48,114.086 238.5,111.5C 238.973,120.365 237.64,129.032 234.5,137.5C 233.167,138.833 231.833,140.167 230.5,141.5C 229.504,147.463 229.171,153.463 229.5,159.5C 227.833,159.5 226.167,159.5 224.5,159.5C 223.363,162.677 223.363,165.843 224.5,169C 223.293,171.266 221.626,173.099 219.5,174.5C 220.244,177.443 220.744,180.443 221,183.5C 222.788,181.667 222.954,179.667 221.5,177.5C 222.242,176.713 223.075,176.047 224,175.5C 224.777,178.429 224.61,181.263 223.5,184C 224.46,185.419 225.293,186.919 226,188.5C 226.638,187.391 227.138,186.225 227.5,185C 226.633,181.895 226.299,178.728 226.5,175.5C 230.833,175.5 235.167,175.5 239.5,175.5C 239.334,180.511 239.501,185.511 240,190.5C 243.057,191.451 246.223,191.784 249.5,191.5C 249.988,194.711 249.321,197.544 247.5,200C 249.291,202.106 249.958,204.606 249.5,207.5C 251.599,208.231 253.599,208.231 255.5,207.5C 254.691,205.929 254.357,204.262 254.5,202.5C 255.5,202.5 256.5,202.5 257.5,202.5C 256.702,198.297 258.369,195.63 262.5,194.5C 262.833,194.833 263.167,195.167 263.5,195.5C 261.385,198.543 260.052,201.876 259.5,205.5C 260.978,205.238 262.311,205.571 263.5,206.5C 259.989,207.534 256.989,209.368 254.5,212C 253,212.167 251.5,212.333 250,212.5C 243.964,211.199 238.13,209.533 232.5,207.5C 230.657,204.811 228.99,201.978 227.5,199C 224.11,198.256 220.777,197.423 217.5,196.5C 217.649,197.552 217.483,198.552 217,199.5C 216.219,198.271 215.719,196.938 215.5,195.5C 217.174,193.651 218.174,191.484 218.5,189C 216.877,186.116 216.544,182.782 217.5,179C 217.078,174.669 216.245,174.502 215,178.5C 214.308,175.194 212.808,172.36 210.5,170C 205.351,168.869 200.184,167.703 195,166.5C 190.844,167.276 186.677,167.942 182.5,168.5C 180.325,168.676 177.992,168.676 175.5,168.5C 177.235,166.425 179.235,164.758 181.5,163.5C 183.318,164.636 185.318,165.303 187.5,165.5C 190.942,163.747 194.609,163.247 198.5,164C 201.53,165.284 204.53,166.451 207.5,167.5C 207.5,166.167 207.5,164.833 207.5,163.5C 204.477,163.483 201.81,162.483 199.5,160.5C 200.711,159.28 200.711,158.113 199.5,157C 197.655,155.872 195.655,155.372 193.5,155.5C 193.433,154.041 193.766,152.708 194.5,151.5C 195.496,151.586 196.329,151.252 197,150.5C 197.305,147.503 197.138,144.503 196.5,141.5C 197.447,138.511 198.78,135.677 200.5,133C 199,131.5 197.5,130 196,128.5C 191.779,113.062 197.613,105.562 213.5,106C 219.452,103.392 225.452,101.225 231.5,99.5 Z"/></g>
<g><path style="opacity:1" fill="#fdb359" d="M 283.5,102.5 C 291.605,101.871 299.271,102.871 306.5,105.5C 304.304,105.565 302.304,106.232 300.5,107.5C 306.604,111.44 312.937,114.94 319.5,118C 324.357,121.922 329.357,125.588 334.5,129C 336.052,130.712 337.385,132.545 338.5,134.5C 337.659,136.379 337.325,138.379 337.5,140.5C 332.953,141.239 328.62,142.572 324.5,144.5C 331.142,145.331 337.809,145.831 344.5,146C 345.554,148.382 346.221,150.882 346.5,153.5C 340.495,153.289 334.828,154.289 329.5,156.5C 327.856,156.286 326.356,156.62 325,157.5C 324.278,160.261 324.445,162.927 325.5,165.5C 327.034,167.342 326.7,168.675 324.5,169.5C 323.52,166.914 323.187,164.247 323.5,161.5C 320.722,161.022 318.722,162.022 317.5,164.5C 315.885,165.154 314.218,165.654 312.5,166C 311.663,167.011 311.33,168.178 311.5,169.5C 314.931,168.929 318.098,167.596 321,165.5C 321.5,165.833 322,166.167 322.5,166.5C 320.097,168.27 318.43,170.603 317.5,173.5C 319.677,175.35 321.177,177.684 322,180.5C 322.667,185.167 322.667,189.833 322,194.5C 321.292,195.381 320.458,196.047 319.5,196.5C 317.85,199.156 316.184,201.822 314.5,204.5C 315.872,206.868 317.872,208.534 320.5,209.5C 320.023,210.931 319.357,212.264 318.5,213.5C 316.072,209.79 312.739,207.957 308.5,208C 308.833,208.333 309.167,208.667 309.5,209C 307.983,210.685 306.316,212.185 304.5,213.5C 303.167,216.5 303.167,219.5 304.5,222.5C 306.833,220.833 309.167,219.167 311.5,217.5C 314.458,219.286 317.291,221.286 320,223.5C 322.465,222.578 324.799,222.578 327,223.5C 328.464,220.113 330.464,220.113 333,223.5C 334,223.167 335,222.833 336,222.5C 336.667,225.167 337.333,225.167 338,222.5C 338.667,225.167 339.333,225.167 340,222.5C 341.333,222.5 342.667,222.5 344,222.5C 344.667,225.167 345.333,225.167 346,222.5C 347.333,222.5 348.667,222.5 350,222.5C 351,223.5 352,224.5 353,225.5C 357,225.5 361,225.5 365,225.5C 367.067,222.986 368.567,223.152 369.5,226C 366.23,226.995 362.897,227.828 359.5,228.5C 362.616,228.92 365.283,229.92 367.5,231.5C 331.397,231.749 295.397,231.415 259.5,230.5C 260.665,229.416 261.998,228.583 263.5,228C 266.226,227.818 268.893,227.318 271.5,226.5C 272.815,224.684 274.315,223.017 276,221.5C 277.555,223.515 279.389,223.848 281.5,222.5C 280.376,221.086 279.376,219.586 278.5,218C 279.817,216.341 281.483,215.174 283.5,214.5C 285.392,203.437 280.725,198.437 269.5,199.5C 269.5,200.5 269.5,201.5 269.5,202.5C 259.448,214.401 247.448,216.734 233.5,209.5C 233.167,208.833 232.833,208.167 232.5,207.5C 238.13,209.533 243.964,211.199 250,212.5C 251.5,212.333 253,212.167 254.5,212C 256.989,209.368 259.989,207.534 263.5,206.5C 262.311,205.571 260.978,205.238 259.5,205.5C 260.052,201.876 261.385,198.543 263.5,195.5C 263.167,195.167 262.833,194.833 262.5,194.5C 258.369,195.63 256.702,198.297 257.5,202.5C 256.5,202.5 255.5,202.5 254.5,202.5C 254.357,204.262 254.691,205.929 255.5,207.5C 253.599,208.231 251.599,208.231 249.5,207.5C 249.958,204.606 249.291,202.106 247.5,200C 249.321,197.544 249.988,194.711 249.5,191.5C 246.223,191.784 243.057,191.451 240,190.5C 239.501,185.511 239.334,180.511 239.5,175.5C 235.167,175.5 230.833,175.5 226.5,175.5C 226.299,178.728 226.633,181.895 227.5,185C 227.138,186.225 226.638,187.391 226,188.5C 225.293,186.919 224.46,185.419 223.5,184C 224.61,181.263 224.777,178.429 224,175.5C 223.075,176.047 222.242,176.713 221.5,177.5C 222.954,179.667 222.788,181.667 221,183.5C 220.744,180.443 220.244,177.443 219.5,174.5C 221.626,173.099 223.293,171.266 224.5,169C 223.363,165.843 223.363,162.677 224.5,159.5C 226.167,159.5 227.833,159.5 229.5,159.5C 229.171,153.463 229.504,147.463 230.5,141.5C 231.833,140.167 233.167,138.833 234.5,137.5C 237.64,129.032 238.973,120.365 238.5,111.5C 239.48,114.086 239.813,116.753 239.5,119.5C 244.5,119.5 249.5,119.5 254.5,119.5C 255.42,124.061 253.754,126.895 249.5,128C 249.833,128.333 250.167,128.667 250.5,129C 257.207,130.342 259.54,127.842 257.5,121.5C 257.887,120.28 258.72,119.613 260,119.5C 261.714,121.073 263.214,122.907 264.5,125C 263.549,125.718 263.383,126.551 264,127.5C 264.949,125.907 266.115,124.574 267.5,123.5C 267.5,125.167 267.5,126.833 267.5,128.5C 271.49,129.163 275.49,129.83 279.5,130.5C 281.529,130.33 283.529,129.996 285.5,129.5C 286.713,129.253 287.38,128.586 287.5,127.5C 288.833,127.5 290.167,127.5 291.5,127.5C 291.492,124.455 291.159,121.455 290.5,118.5C 289.5,118.5 288.5,118.5 287.5,118.5C 288.736,115.968 290.069,113.468 291.5,111C 289.639,109.927 287.806,108.76 286,107.5C 283.942,108.958 281.609,109.625 279,109.5C 274.826,109.702 273.992,108.535 276.5,106C 279.833,105.667 283.167,105.333 286.5,105C 285.058,104.623 284.058,103.79 283.5,102.5 Z"/></g>
<g><path style="opacity:1" fill="#dea565" d="M 275.5,99.5 C 284.026,101.336 292.693,102.003 301.5,101.5C 318.4,107.61 333.733,116.277 347.5,127.5C 338.038,121.394 328.371,115.56 318.5,110C 314.67,108.002 310.67,106.502 306.5,105.5C 299.271,102.871 291.605,101.871 283.5,102.5C 280.284,102.655 277.617,101.655 275.5,99.5 Z"/></g>
<g><path style="opacity:1" fill="#f0bc78" d="M 213.5,129.5 C 216.898,129.82 220.232,129.487 223.5,128.5C 226.545,124.547 225.545,122.047 220.5,121C 216.745,120.245 213.078,120.411 209.5,121.5C 209.5,120.5 209.5,119.5 209.5,118.5C 215.004,118.068 220.337,118.735 225.5,120.5C 227.223,122.868 227.89,125.534 227.5,128.5C 224.785,129.451 221.951,130.117 219,130.5C 216.967,130.494 215.134,130.161 213.5,129.5 Z"/></g>
<g><path style="opacity:1" fill="#f3b870" d="M 287.5,118.5 C 288.5,118.5 289.5,118.5 290.5,118.5C 291.159,121.455 291.492,124.455 291.5,127.5C 290.167,127.5 288.833,127.5 287.5,127.5C 287.38,128.586 286.713,129.253 285.5,129.5C 283.529,129.996 281.529,130.33 279.5,130.5C 275.49,129.83 271.49,129.163 267.5,128.5C 267.5,126.833 267.5,125.167 267.5,123.5C 267.859,121.629 268.859,120.129 270.5,119C 276.157,118.501 281.824,118.334 287.5,118.5 Z"/></g>
<g><path style="opacity:1" fill="#fcfaef" d="M 287.5,127.5 C 282.18,128.775 276.847,128.775 271.5,127.5C 270.275,121.725 272.608,119.059 278.5,119.5C 281.656,119.743 284.656,120.576 287.5,122C 288.752,123.828 288.752,125.661 287.5,127.5 Z"/></g>
<g><path style="opacity:1" fill="#fbb45f" d="M 231.5,99.5 C 225.452,101.225 219.452,103.392 213.5,106C 197.613,105.562 191.779,113.062 196,128.5C 197.5,130 199,131.5 200.5,133C 198.78,135.677 197.447,138.511 196.5,141.5C 197.138,144.503 197.305,147.503 197,150.5C 196.329,151.252 195.496,151.586 194.5,151.5C 190.833,151.5 187.167,151.5 183.5,151.5C 182.392,156.465 180.226,156.798 177,152.5C 176.667,151.5 176.333,150.5 176,149.5C 174.701,149.966 173.201,149.966 171.5,149.5C 171.167,152.5 172.5,153.833 175.5,153.5C 175.137,155.911 176.137,157.411 178.5,158C 176.114,157.649 173.781,157.815 171.5,158.5C 172.833,159.167 174.167,159.833 175.5,160.5C 173.994,161.747 172.494,161.747 171,160.5C 169.33,166.162 165.497,169.328 159.5,170C 160.448,170.483 161.448,170.649 162.5,170.5C 162.5,171.5 162.5,172.5 162.5,173.5C 160.08,173.708 157.747,173.374 155.5,172.5C 155.167,173.167 154.833,173.833 154.5,174.5C 152.031,172.993 149.865,173.327 148,175.5C 144.647,172.108 145.48,169.941 150.5,169C 145.846,160.447 148.18,155.781 157.5,155C 154.833,154 152.167,153 149.5,152C 150.263,151.056 151.263,150.556 152.5,150.5C 157.707,152.057 162.707,151.557 167.5,149C 162.628,147.179 157.628,147.013 152.5,148.5C 151.692,148.192 151.025,147.692 150.5,147C 153.309,145.878 156.309,145.378 159.5,145.5C 163.216,145.796 166.883,145.962 170.5,146C 171.833,145 171.833,144 170.5,143C 168.167,142.667 165.833,142.333 163.5,142C 169.988,140.335 172.655,136.169 171.5,129.5C 170.07,129.421 168.736,129.754 167.5,130.5C 165.918,132.585 163.918,134.085 161.5,135C 159.845,136.444 159.178,138.278 159.5,140.5C 158.127,140.343 156.793,140.51 155.5,141C 156.993,142.156 156.826,142.99 155,143.5C 153.832,142.491 152.665,141.491 151.5,140.5C 149.904,143.456 148.404,146.456 147,149.5C 145.192,147.442 143.025,147.108 140.5,148.5C 140.472,150.582 141.139,152.416 142.5,154C 140.702,153.994 139.035,153.661 137.5,153C 135.437,154.572 134.771,156.405 135.5,158.5C 133.273,160.607 131.273,162.94 129.5,165.5C 133.025,166.137 135.692,167.97 137.5,171C 138.793,171.49 140.127,171.657 141.5,171.5C 142.514,174.874 142.181,178.208 140.5,181.5C 139.313,180.106 138.646,180.273 138.5,182C 139.369,183.869 140.535,184.369 142,183.5C 142.579,184.928 142.412,186.262 141.5,187.5C 142.766,189.694 142.766,192.028 141.5,194.5C 136.066,195.37 130.9,196.037 126,196.5C 121.605,199.102 118.771,202.935 117.5,208C 115.597,208.774 113.93,208.44 112.5,207C 114.497,204.508 115.497,201.675 115.5,198.5C 114.5,198.5 113.5,198.5 112.5,198.5C 112.5,199.833 112.5,201.167 112.5,202.5C 111.5,202.5 110.5,202.5 109.5,202.5C 109.923,204.781 109.256,206.448 107.5,207.5C 111.575,189.913 118.908,173.913 129.5,159.5C 132.522,156.137 135.188,152.47 137.5,148.5C 162.823,120.823 194.156,104.49 231.5,99.5 Z"/></g>
<g><path style="opacity:1" fill="#fef7db" d="M 213.5,129.5 C 209.049,128.384 207.716,125.718 209.5,121.5C 213.078,120.411 216.745,120.245 220.5,121C 225.545,122.047 226.545,124.547 223.5,128.5C 220.232,129.487 216.898,129.82 213.5,129.5 Z"/></g>
<g><path style="opacity:1" fill="#f9fdfa" d="M 211.5,121.5 C 214.187,121.336 216.854,121.503 219.5,122C 221.612,122.906 222.445,124.406 222,126.5C 218.591,127.622 215.091,127.789 211.5,127C 210.248,125.172 210.248,123.339 211.5,121.5 Z"/></g>
<g><path style="opacity:1" fill="#fcfbf3" d="M 182.5,135.5 C 188.992,136.321 192.992,139.987 194.5,146.5C 194.202,150.226 192.202,151.393 188.5,150C 183.246,146.347 181.246,141.514 182.5,135.5 Z"/></g>
<g><path style="opacity:1" fill="#fcf9ee" d="M 247.5,143.5 C 250.833,143.5 254.167,143.5 257.5,143.5C 257.398,148.444 255.065,151.944 250.5,154C 246.339,156.611 243.339,155.778 241.5,151.5C 242.935,148.438 244.935,145.771 247.5,143.5 Z"/></g>
<g><path style="opacity:1" fill="#f5b86d" d="M 315.5,140.5 C 315.678,145.462 313.678,149.295 309.5,152C 307.209,152.015 305.042,152.182 303,152.5C 301.431,151.286 300.598,149.619 300.5,147.5C 301.593,144.231 302.259,140.897 302.5,137.5C 305.779,136.969 307.113,134.969 306.5,131.5C 309.448,131.777 312.281,131.444 315,130.5C 316.364,132.776 317.197,135.276 317.5,138C 317.316,139.376 316.649,140.209 315.5,140.5 Z"/></g>
<g><path style="opacity:1" fill="#fdfaee" d="M 315.5,140.5 C 313.536,143.568 311.203,146.402 308.5,149C 306.866,149.494 305.199,149.66 303.5,149.5C 302.853,143.269 304.853,138.102 309.5,134C 314.921,132.72 316.921,134.887 315.5,140.5 Z"/></g>
<g><path style="opacity:0.004" fill="#fefffe" d="M 403.5,151.5 C 404.833,152.167 404.833,152.167 403.5,151.5 Z"/></g>
<g><path style="opacity:1" fill="#f5a144" d="M 306.5,105.5 C 310.67,106.502 314.67,108.002 318.5,110C 328.371,115.56 338.038,121.394 347.5,127.5C 350.833,130.167 354.167,132.833 357.5,135.5C 366.819,149.807 374.319,165.141 380,181.5C 384.318,197.963 385.485,214.63 383.5,231.5C 379.445,231.824 375.445,231.491 371.5,230.5C 372.135,226.552 372.468,222.552 372.5,218.5C 371.644,206.36 370.644,194.36 369.5,182.5C 368.186,181.687 367.019,180.687 366,179.5C 363.646,172.622 361.146,165.789 358.5,159C 354.214,154.255 350.547,149.089 347.5,143.5C 344.812,140.146 341.812,137.146 338.5,134.5C 337.385,132.545 336.052,130.712 334.5,129C 329.357,125.588 324.357,121.922 319.5,118C 312.937,114.94 306.604,111.44 300.5,107.5C 302.304,106.232 304.304,105.565 306.5,105.5 Z"/></g>
<g><path style="opacity:1" fill="#fdb358" d="M 194.5,151.5 C 193.766,152.708 193.433,154.041 193.5,155.5C 195.655,155.372 197.655,155.872 199.5,157C 200.711,158.113 200.711,159.28 199.5,160.5C 201.81,162.483 204.477,163.483 207.5,163.5C 207.5,164.833 207.5,166.167 207.5,167.5C 204.53,166.451 201.53,165.284 198.5,164C 194.609,163.247 190.942,163.747 187.5,165.5C 185.318,165.303 183.318,164.636 181.5,163.5C 179.235,164.758 177.235,166.425 175.5,168.5C 177.992,168.676 180.325,168.676 182.5,168.5C 181.207,170.808 179.874,173.142 178.5,175.5C 175.397,183.792 175.897,191.792 180,199.5C 180.816,200.823 181.983,201.489 183.5,201.5C 184.749,203.136 186.416,204.303 188.5,205C 193.983,205.85 199.317,205.35 204.5,203.5C 206.39,203.703 207.89,203.037 209,201.5C 209.743,203.441 209.576,205.274 208.5,207C 210.135,207.54 211.468,207.04 212.5,205.5C 211.766,214.074 215.433,219.407 223.5,221.5C 225.889,223.369 225.889,225.203 223.5,227C 226.5,227.333 229.5,227.667 232.5,228C 234.481,228.605 234.815,229.605 233.5,231C 190.835,231.5 148.168,231.667 105.5,231.5C 106.497,223.538 107.163,215.538 107.5,207.5C 109.256,206.448 109.923,204.781 109.5,202.5C 110.5,202.5 111.5,202.5 112.5,202.5C 112.5,201.167 112.5,199.833 112.5,198.5C 113.5,198.5 114.5,198.5 115.5,198.5C 115.497,201.675 114.497,204.508 112.5,207C 113.93,208.44 115.597,208.774 117.5,208C 118.771,202.935 121.605,199.102 126,196.5C 130.9,196.037 136.066,195.37 141.5,194.5C 142.766,192.028 142.766,189.694 141.5,187.5C 142.412,186.262 142.579,184.928 142,183.5C 140.535,184.369 139.369,183.869 138.5,182C 138.646,180.273 139.313,180.106 140.5,181.5C 142.181,178.208 142.514,174.874 141.5,171.5C 140.127,171.657 138.793,171.49 137.5,171C 135.692,167.97 133.025,166.137 129.5,165.5C 131.273,162.94 133.273,160.607 135.5,158.5C 134.771,156.405 135.437,154.572 137.5,153C 139.035,153.661 140.702,153.994 142.5,154C 141.139,152.416 140.472,150.582 140.5,148.5C 143.025,147.108 145.192,147.442 147,149.5C 148.404,146.456 149.904,143.456 151.5,140.5C 152.665,141.491 153.832,142.491 155,143.5C 156.826,142.99 156.993,142.156 155.5,141C 156.793,140.51 158.127,140.343 159.5,140.5C 159.178,138.278 159.845,136.444 161.5,135C 163.918,134.085 165.918,132.585 167.5,130.5C 168.736,129.754 170.07,129.421 171.5,129.5C 172.655,136.169 169.988,140.335 163.5,142C 165.833,142.333 168.167,142.667 170.5,143C 171.833,144 171.833,145 170.5,146C 166.883,145.962 163.216,145.796 159.5,145.5C 156.309,145.378 153.309,145.878 150.5,147C 151.025,147.692 151.692,148.192 152.5,148.5C 157.628,147.013 162.628,147.179 167.5,149C 162.707,151.557 157.707,152.057 152.5,150.5C 151.263,150.556 150.263,151.056 149.5,152C 152.167,153 154.833,154 157.5,155C 148.18,155.781 145.846,160.447 150.5,169C 145.48,169.941 144.647,172.108 148,175.5C 149.865,173.327 152.031,172.993 154.5,174.5C 154.833,173.833 155.167,173.167 155.5,172.5C 157.747,173.374 160.08,173.708 162.5,173.5C 162.5,172.5 162.5,171.5 162.5,170.5C 161.448,170.649 160.448,170.483 159.5,170C 165.497,169.328 169.33,166.162 171,160.5C 172.494,161.747 173.994,161.747 175.5,160.5C 174.167,159.833 172.833,159.167 171.5,158.5C 173.781,157.815 176.114,157.649 178.5,158C 176.137,157.411 175.137,155.911 175.5,153.5C 172.5,153.833 171.167,152.5 171.5,149.5C 173.201,149.966 174.701,149.966 176,149.5C 176.333,150.5 176.667,151.5 177,152.5C 180.226,156.798 182.392,156.465 183.5,151.5C 187.167,151.5 190.833,151.5 194.5,151.5 Z"/></g>
<g><path style="opacity:1" fill="#fef9e8" d="M 153.5,157.5 C 158.74,157.094 163.74,157.76 168.5,159.5C 168.978,162.278 167.978,164.278 165.5,165.5C 160.667,166.969 156,166.636 151.5,164.5C 149.856,161.397 150.523,159.064 153.5,157.5 Z"/></g>
<g><path style="opacity:1" fill="#efbc79" d="M 329.5,156.5 C 333.514,156.334 337.514,156.501 341.5,157C 342.381,157.708 343.047,158.542 343.5,159.5C 346.267,160.754 346.933,162.754 345.5,165.5C 338.736,169.463 332.07,169.463 325.5,165.5C 324.445,162.927 324.278,160.261 325,157.5C 326.356,156.62 327.856,156.286 329.5,156.5 Z"/></g>
<g><path style="opacity:1" fill="#fcfbef" d="M 343.5,159.5 C 345.335,162.492 344.669,164.658 341.5,166C 337.833,166.667 334.167,166.667 330.5,166C 325.739,163.671 325.405,161.005 329.5,158C 334.318,157.221 338.985,157.721 343.5,159.5 Z"/></g>
<g><path style="opacity:1" fill="#42230c" d="M 307.5,169.5 C 300.1,169.302 293.434,171.302 287.5,175.5C 292.842,168.844 299.509,166.844 307.5,169.5 Z"/></g>
<g><path style="opacity:1" fill="#2d1f26" d="M 206.5,173.5 C 207.844,177.696 209.511,181.696 211.5,185.5C 210.236,191.43 206.57,194.43 200.5,194.5C 199.326,198.176 196.826,200.176 193,200.5C 192.308,199.975 191.808,199.308 191.5,198.5C 197.395,195.285 197.395,193.618 191.5,193.5C 191.33,192.178 191.663,191.011 192.5,190C 191.584,189.626 190.75,189.126 190,188.5C 188.617,191.076 187.783,190.742 187.5,187.5C 187.728,185.793 188.062,184.126 188.5,182.5C 190.583,177.414 188.917,175.58 183.5,177C 181.923,179.86 182.59,182.027 185.5,183.5C 185.638,187.733 185.138,191.733 184,195.5C 185.789,193.771 187.956,193.104 190.5,193.5C 190.5,194.833 190.5,196.167 190.5,197.5C 188.173,197.247 186.173,197.914 184.5,199.5C 183.583,198.873 182.583,198.539 181.5,198.5C 176.052,190.394 176.219,182.394 182,174.5C 185.737,171.366 190.07,170.033 195,170.5C 197.167,170.667 199.333,170.833 201.5,171C 203.078,172.094 204.745,172.928 206.5,173.5 Z"/></g>
<g><path style="opacity:1" fill="#2f2024" d="M 399.5,164.5 C 410.364,186.116 416.364,209.116 417.5,233.5C 428.016,231.243 434.35,235.243 436.5,245.5C 434.596,255.972 428.263,260.305 417.5,258.5C 418.517,276.476 412.517,291.476 399.5,303.5C 397.15,304.861 394.816,306.194 392.5,307.5C 387.735,309.475 382.735,310.975 377.5,312C 372.833,312.667 368.167,312.667 363.5,312C 363.167,311.667 362.833,311.333 362.5,311C 365.977,310.337 369.477,309.837 373,309.5C 378.089,310.879 382.589,309.712 386.5,306C 384.899,305.727 383.399,305.227 382,304.5C 377.55,305.8 373.05,305.8 368.5,304.5C 371.107,303.682 373.774,303.182 376.5,303C 371.873,302.95 367.54,302.117 363.5,300.5C 371.292,301.247 378.626,299.914 385.5,296.5C 389.109,295.026 392.443,293.026 395.5,290.5C 402.599,278.338 404.933,265.338 402.5,251.5C 402.672,250.508 402.338,249.842 401.5,249.5C 401.631,248.624 401.298,247.957 400.5,247.5C 373.373,248.158 346.373,248.825 319.5,249.5C 318.539,251.265 318.205,253.265 318.5,255.5C 317.178,255.33 316.011,255.663 315,256.5C 314.55,252.812 314.717,249.146 315.5,245.5C 316.978,245.762 318.311,245.429 319.5,244.5C 318.359,243.575 318.359,242.741 319.5,242C 324.823,241.501 330.156,241.334 335.5,241.5C 335.5,242.5 335.5,243.5 335.5,244.5C 340.907,244.946 345.74,245.279 350,245.5C 351,244.833 352,244.167 353,243.5C 362.44,244.366 371.94,244.199 381.5,243C 383.635,241.619 385.968,240.619 388.5,240C 388.5,238.667 388.5,237.333 388.5,236C 348.329,235.69 308.162,235.523 268,235.5C 265.091,235.731 262.591,236.897 260.5,239C 264.376,239.575 268.042,239.075 271.5,237.5C 271.5,238.833 271.5,240.167 271.5,241.5C 266.156,241.666 260.823,241.499 255.5,241C 255.273,239.865 254.94,238.698 254.5,237.5C 253.614,238.325 253.281,239.325 253.5,240.5C 249.818,240.665 246.152,240.499 242.5,240C 243.337,238.989 243.67,237.822 243.5,236.5C 239.476,236.497 235.476,236.164 231.5,235.5C 228.211,236.382 224.877,237.048 221.5,237.5C 209.994,236.233 198.494,236.233 187,237.5C 183.172,236.959 179.339,236.459 175.5,236C 154.167,235.667 132.833,235.333 111.5,235C 108.635,234.817 105.969,234.317 103.5,233.5C 202.167,233.5 300.833,233.5 399.5,233.5C 400.611,220.201 398.944,207.034 394.5,194C 394.316,192.624 393.649,191.791 392.5,191.5C 392.5,191.167 392.5,190.833 392.5,190.5C 390.806,182.746 388.139,175.413 384.5,168.5C 386.604,168.799 388.604,168.466 390.5,167.5C 390.901,163.65 392.901,161.317 396.5,160.5C 396.468,162.619 397.468,163.952 399.5,164.5 Z"/></g>
<g><path style="opacity:1" fill="#e7e8ea" d="M 188.5,182.5 C 187.609,183.11 186.609,183.443 185.5,183.5C 182.59,182.027 181.923,179.86 183.5,177C 188.917,175.58 190.583,177.414 188.5,182.5 Z"/></g>
<g><path style="opacity:1" fill="#491f0f" d="M 382.5,167.5 C 383.167,167.833 383.833,168.167 384.5,168.5C 388.139,175.413 390.806,182.746 392.5,190.5C 388.936,183.028 385.603,175.362 382.5,167.5 Z"/></g>
<g><path style="opacity:1" fill="#2d1f26" d="M 307.5,169.5 C 308.962,171.255 310.795,172.588 313,173.5C 313.849,176.521 314.683,179.521 315.5,182.5C 316.675,182.281 317.675,182.614 318.5,183.5C 316.257,184.474 313.924,184.808 311.5,184.5C 311.649,185.552 311.483,186.552 311,187.5C 310.107,186.289 309.274,186.289 308.5,187.5C 312.172,188.231 312.839,189.731 310.5,192C 316.57,198.118 315.237,201.785 306.5,203C 303.773,203.818 301.106,203.652 298.5,202.5C 302.167,201.833 305.833,201.167 309.5,200.5C 310.246,199.264 310.579,197.93 310.5,196.5C 308.335,196.884 306.668,196.217 305.5,194.5C 307.086,192.827 307.753,190.827 307.5,188.5C 305.738,188.643 304.071,188.309 302.5,187.5C 300.49,189.171 298.157,189.838 295.5,189.5C 296.38,187.389 296.38,185.389 295.5,183.5C 298.994,178.289 297.661,176.122 291.5,177C 290.144,179.414 290.478,181.581 292.5,183.5C 290.217,183.392 288.217,182.559 286.5,181C 287.406,179.301 287.739,177.467 287.5,175.5C 293.434,171.302 300.1,169.302 307.5,169.5 Z"/></g>
<g><path style="opacity:0.004" fill="#fefffe" d="M 30.5,183.5 C 31.8333,184.167 31.8333,184.167 30.5,183.5 Z"/></g>
<g><path style="opacity:1" fill="#432411" d="M 206.5,173.5 C 204.745,172.928 203.078,172.094 201.5,171C 199.333,170.833 197.167,170.667 195,170.5C 190.07,170.033 185.737,171.366 182,174.5C 176.219,182.394 176.052,190.394 181.5,198.5C 182.167,199.5 182.833,200.5 183.5,201.5C 181.983,201.489 180.816,200.823 180,199.5C 175.897,191.792 175.397,183.792 178.5,175.5C 185.251,168.53 193.251,166.697 202.5,170C 204.324,170.66 205.657,171.827 206.5,173.5 Z"/></g>
<g><path style="opacity:1" fill="#fdfaee" d="M 141.5,187.5 C 142.169,193 139.835,195.167 134.5,194C 131.763,190.933 129.429,187.599 127.5,184C 128.798,180.795 131.132,179.795 134.5,181C 136.907,183.183 139.24,185.35 141.5,187.5 Z"/></g>
<g><path style="opacity:1" fill="#fef7e6" d="M 129.5,159.5 C 118.908,173.913 111.575,189.913 107.5,207.5C 104.88,215.491 103.547,223.824 103.5,232.5C 102.574,219.016 104.407,205.683 109,192.5C 112.244,187.021 115.244,181.355 118,175.5C 118.186,173.1 118.686,170.766 119.5,168.5C 121.526,167.63 122.859,166.13 123.5,164C 122.052,159.675 123.052,158.842 126.5,161.5C 127.265,160.388 128.265,159.721 129.5,159.5 Z"/></g>
<g><path style="opacity:1" fill="#fdb357" d="M 338.5,134.5 C 341.812,137.146 344.812,140.146 347.5,143.5C 350.547,149.089 354.214,154.255 358.5,159C 361.146,165.789 363.646,172.622 366,179.5C 367.019,180.687 368.186,181.687 369.5,182.5C 370.644,194.36 371.644,206.36 372.5,218.5C 372.468,222.552 372.135,226.552 371.5,230.5C 375.445,231.491 379.445,231.824 383.5,231.5C 383.5,231.833 383.5,232.167 383.5,232.5C 378.167,232.5 372.833,232.5 367.5,232.5C 367.5,232.167 367.5,231.833 367.5,231.5C 365.283,229.92 362.616,228.92 359.5,228.5C 362.897,227.828 366.23,226.995 369.5,226C 368.567,223.152 367.067,222.986 365,225.5C 361,225.5 357,225.5 353,225.5C 352,224.5 351,223.5 350,222.5C 348.667,222.5 347.333,222.5 346,222.5C 345.333,225.167 344.667,225.167 344,222.5C 342.667,222.5 341.333,222.5 340,222.5C 339.333,225.167 338.667,225.167 338,222.5C 337.333,225.167 336.667,225.167 336,222.5C 335,222.833 334,223.167 333,223.5C 330.464,220.113 328.464,220.113 327,223.5C 324.799,222.578 322.465,222.578 320,223.5C 317.291,221.286 314.458,219.286 311.5,217.5C 309.167,219.167 306.833,220.833 304.5,222.5C 303.167,219.5 303.167,216.5 304.5,213.5C 306.316,212.185 307.983,210.685 309.5,209C 309.167,208.667 308.833,208.333 308.5,208C 312.739,207.957 316.072,209.79 318.5,213.5C 319.357,212.264 320.023,210.931 320.5,209.5C 317.872,208.534 315.872,206.868 314.5,204.5C 316.184,201.822 317.85,199.156 319.5,196.5C 320.458,196.047 321.292,195.381 322,194.5C 322.667,189.833 322.667,185.167 322,180.5C 321.177,177.684 319.677,175.35 317.5,173.5C 318.43,170.603 320.097,168.27 322.5,166.5C 322,166.167 321.5,165.833 321,165.5C 318.098,167.596 314.931,168.929 311.5,169.5C 311.33,168.178 311.663,167.011 312.5,166C 314.218,165.654 315.885,165.154 317.5,164.5C 318.722,162.022 320.722,161.022 323.5,161.5C 323.187,164.247 323.52,166.914 324.5,169.5C 326.7,168.675 327.034,167.342 325.5,165.5C 332.07,169.463 338.736,169.463 345.5,165.5C 346.933,162.754 346.267,160.754 343.5,159.5C 343.047,158.542 342.381,157.708 341.5,157C 337.514,156.501 333.514,156.334 329.5,156.5C 334.828,154.289 340.495,153.289 346.5,153.5C 346.221,150.882 345.554,148.382 344.5,146C 337.809,145.831 331.142,145.331 324.5,144.5C 328.62,142.572 332.953,141.239 337.5,140.5C 337.325,138.379 337.659,136.379 338.5,134.5 Z"/></g>
<g><path style="opacity:1" fill="#fdf7e9" d="M 353.5,179.5 C 358.852,179.12 363.685,180.453 368,183.5C 369.517,188.485 367.684,190.485 362.5,189.5C 358.949,189.431 355.616,188.598 352.5,187C 351.083,184.257 351.416,181.757 353.5,179.5 Z"/></g>
<g><path style="opacity:1" fill="#f4b162" d="M 232.5,207.5 C 230.37,205.873 228.37,204.04 226.5,202C 220.028,199.293 216.361,201.46 215.5,208.5C 215.172,211.501 216.172,213.834 218.5,215.5C 218.5,215.833 218.5,216.167 218.5,216.5C 220.36,217.939 222.027,219.605 223.5,221.5C 215.433,219.407 211.766,214.074 212.5,205.5C 211.468,207.04 210.135,207.54 208.5,207C 209.576,205.274 209.743,203.441 209,201.5C 207.89,203.037 206.39,203.703 204.5,203.5C 213.75,196.692 215.917,188.025 211,177.5C 209.629,175.959 208.129,174.625 206.5,173.5C 205.657,171.827 204.324,170.66 202.5,170C 193.251,166.697 185.251,168.53 178.5,175.5C 179.874,173.142 181.207,170.808 182.5,168.5C 186.677,167.942 190.844,167.276 195,166.5C 200.184,167.703 205.351,168.869 210.5,170C 212.808,172.36 214.308,175.194 215,178.5C 216.245,174.502 217.078,174.669 217.5,179C 216.544,182.782 216.877,186.116 218.5,189C 218.174,191.484 217.174,193.651 215.5,195.5C 215.719,196.938 216.219,198.271 217,199.5C 217.483,198.552 217.649,197.552 217.5,196.5C 220.777,197.423 224.11,198.256 227.5,199C 228.99,201.978 230.657,204.811 232.5,207.5 Z"/></g>
<g><path style="opacity:1" fill="#312021" d="M 307.5,169.5 C 320.328,174.399 324.328,183.399 319.5,196.5C 316.191,200.309 312.191,203.142 307.5,205C 289.893,206.391 282.06,198.224 284,180.5C 284.697,178.416 285.864,176.749 287.5,175.5C 287.739,177.467 287.406,179.301 286.5,181C 288.217,182.559 290.217,183.392 292.5,183.5C 293.5,183.5 294.5,183.5 295.5,183.5C 296.38,185.389 296.38,187.389 295.5,189.5C 298.157,189.838 300.49,189.171 302.5,187.5C 304.071,188.309 305.738,188.643 307.5,188.5C 307.753,190.827 307.086,192.827 305.5,194.5C 306.668,196.217 308.335,196.884 310.5,196.5C 310.579,197.93 310.246,199.264 309.5,200.5C 305.833,201.167 302.167,201.833 298.5,202.5C 301.106,203.652 303.773,203.818 306.5,203C 315.237,201.785 316.57,198.118 310.5,192C 312.839,189.731 312.172,188.231 308.5,187.5C 309.274,186.289 310.107,186.289 311,187.5C 311.483,186.552 311.649,185.552 311.5,184.5C 313.924,184.808 316.257,184.474 318.5,183.5C 317.675,182.614 316.675,182.281 315.5,182.5C 314.683,179.521 313.849,176.521 313,173.5C 310.795,172.588 308.962,171.255 307.5,169.5 Z"/></g>
<g><path style="opacity:1" fill="#e8e9ec" d="M 295.5,183.5 C 294.5,183.5 293.5,183.5 292.5,183.5C 290.478,181.581 290.144,179.414 291.5,177C 297.661,176.122 298.994,178.289 295.5,183.5 Z"/></g>
<g><path style="opacity:1" fill="#31211f" d="M 206.5,173.5 C 208.129,174.625 209.629,175.959 211,177.5C 215.917,188.025 213.75,196.692 204.5,203.5C 199.317,205.35 193.983,205.85 188.5,205C 186.416,204.303 184.749,203.136 183.5,201.5C 182.833,200.5 182.167,199.5 181.5,198.5C 182.583,198.539 183.583,198.873 184.5,199.5C 186.173,197.914 188.173,197.247 190.5,197.5C 190.5,196.167 190.5,194.833 190.5,193.5C 187.956,193.104 185.789,193.771 184,195.5C 185.138,191.733 185.638,187.733 185.5,183.5C 186.609,183.443 187.609,183.11 188.5,182.5C 188.062,184.126 187.728,185.793 187.5,187.5C 187.783,190.742 188.617,191.076 190,188.5C 190.75,189.126 191.584,189.626 192.5,190C 191.663,191.011 191.33,192.178 191.5,193.5C 197.395,193.618 197.395,195.285 191.5,198.5C 191.808,199.308 192.308,199.975 193,200.5C 196.826,200.176 199.326,198.176 200.5,194.5C 206.57,194.43 210.236,191.43 211.5,185.5C 209.511,181.696 207.844,177.696 206.5,173.5 Z"/></g>
<g><path style="opacity:1" fill="#f4f4f7" d="M 186.5,104.5 C 185.091,106.417 183.424,108.25 181.5,110C 182.668,111.406 182.335,112.572 180.5,113.5C 174.812,115.533 169.145,117.7 163.5,120C 157.13,126.315 150.797,131.982 144.5,137C 144.833,137.333 145.167,137.667 145.5,138C 144.552,138.483 143.552,138.649 142.5,138.5C 142.623,142.04 140.957,144.04 137.5,144.5C 137.5,145.833 137.5,147.167 137.5,148.5C 135.188,152.47 132.522,156.137 129.5,159.5C 128.265,159.721 127.265,160.388 126.5,161.5C 123.052,158.842 122.052,159.675 123.5,164C 122.859,166.13 121.526,167.63 119.5,168.5C 118.686,170.766 118.186,173.1 118,175.5C 115.244,181.355 112.244,187.021 109,192.5C 104.407,205.683 102.574,219.016 103.5,232.5C 103.5,232.833 103.5,233.167 103.5,233.5C 101.833,233.5 100.167,233.5 98.5,233.5C 98.3337,226.492 98.5004,219.492 99,212.5C 109.433,161.29 138.6,125.29 186.5,104.5 Z"/></g>
<g><path style="opacity:1" fill="#da8127" d="M 357.5,135.5 C 366.597,145.594 374.93,156.26 382.5,167.5C 385.603,175.362 388.936,183.028 392.5,190.5C 392.5,190.833 392.5,191.167 392.5,191.5C 393.15,193.435 393.483,195.435 393.5,197.5C 395.089,209.217 396.756,220.884 398.5,232.5C 393.5,232.5 388.5,232.5 383.5,232.5C 383.5,232.167 383.5,231.833 383.5,231.5C 385.485,214.63 384.318,197.963 380,181.5C 374.319,165.141 366.819,149.807 357.5,135.5 Z"/></g>
<g><path style="opacity:1" fill="#48220f" d="M 232.5,207.5 C 232.833,208.167 233.167,208.833 233.5,209.5C 231.246,208.585 229.246,207.252 227.5,205.5C 224.123,201.522 220.623,201.522 217,205.5C 216.309,209.021 216.809,212.355 218.5,215.5C 216.172,213.834 215.172,211.501 215.5,208.5C 216.361,201.46 220.028,199.293 226.5,202C 228.37,204.04 230.37,205.873 232.5,207.5 Z"/></g>
<g><path style="opacity:1" fill="#401d0e" d="M 392.5,191.5 C 393.649,191.791 394.316,192.624 394.5,194C 398.944,207.034 400.611,220.201 399.5,233.5C 399.425,221.048 397.425,209.048 393.5,197.5C 393.483,195.435 393.15,193.435 392.5,191.5 Z"/></g>
<g><path style="opacity:1" fill="#2e1e26" d="M 227.5,205.5 C 228.072,208.085 228.239,210.751 228,213.5C 229.044,212.377 229.71,211.044 230,209.5C 234.845,210.457 235.345,212.123 231.5,214.5C 234.207,218.196 237.874,220.196 242.5,220.5C 245.802,219.742 249.135,219.075 252.5,218.5C 253.932,218.733 254.432,219.4 254,220.5C 250.924,221.288 247.758,221.788 244.5,222C 243.167,222.667 243.167,223.333 244.5,224C 239.71,225.913 235.044,225.58 230.5,223C 230.5,222 230.5,221 230.5,220C 228.965,219.504 227.465,219.67 226,220.5C 224.286,219.924 223.119,218.757 222.5,217C 221.207,216.51 219.873,216.343 218.5,216.5C 218.5,216.167 218.5,215.833 218.5,215.5C 216.809,212.355 216.309,209.021 217,205.5C 220.623,201.522 224.123,201.522 227.5,205.5 Z"/></g>
<g><path style="opacity:1" fill="#322020" d="M 223.5,221.5 C 222.027,219.605 220.36,217.939 218.5,216.5C 219.873,216.343 221.207,216.51 222.5,217C 223.119,218.757 224.286,219.924 226,220.5C 227.465,219.67 228.965,219.504 230.5,220C 230.5,221 230.5,222 230.5,223C 235.044,225.58 239.71,225.913 244.5,224C 243.167,223.333 243.167,222.667 244.5,222C 247.758,221.788 250.924,221.288 254,220.5C 254.432,219.4 253.932,218.733 252.5,218.5C 249.135,219.075 245.802,219.742 242.5,220.5C 237.874,220.196 234.207,218.196 231.5,214.5C 235.345,212.123 234.845,210.457 230,209.5C 229.71,211.044 229.044,212.377 228,213.5C 228.239,210.751 228.072,208.085 227.5,205.5C 229.246,207.252 231.246,208.585 233.5,209.5C 247.448,216.734 259.448,214.401 269.5,202.5C 273.819,199.594 277.652,200.261 281,204.5C 282.573,211.193 280.406,216.359 274.5,220C 257.798,232.024 240.798,232.524 223.5,221.5 Z"/></g>
<g><path style="opacity:1" fill="#f1b668" d="M 367.5,231.5 C 367.5,231.833 367.5,232.167 367.5,232.5C 279.5,232.5 191.5,232.5 103.5,232.5C 103.547,223.824 104.88,215.491 107.5,207.5C 107.163,215.538 106.497,223.538 105.5,231.5C 148.168,231.667 190.835,231.5 233.5,231C 234.815,229.605 234.481,228.605 232.5,228C 229.5,227.667 226.5,227.333 223.5,227C 225.889,225.203 225.889,223.369 223.5,221.5C 240.798,232.524 257.798,232.024 274.5,220C 280.406,216.359 282.573,211.193 281,204.5C 277.652,200.261 273.819,199.594 269.5,202.5C 269.5,201.5 269.5,200.5 269.5,199.5C 280.725,198.437 285.392,203.437 283.5,214.5C 281.483,215.174 279.817,216.341 278.5,218C 279.376,219.586 280.376,221.086 281.5,222.5C 279.389,223.848 277.555,223.515 276,221.5C 274.315,223.017 272.815,224.684 271.5,226.5C 268.893,227.318 266.226,227.818 263.5,228C 261.998,228.583 260.665,229.416 259.5,230.5C 295.397,231.415 331.397,231.749 367.5,231.5 Z"/></g>
<g><path style="opacity:0.004" fill="#fefffe" d="M 487.5,231.5 C 488.833,232.167 488.833,232.167 487.5,231.5 Z"/></g>
<g><path style="opacity:1" fill="#bf8a50" d="M 393.5,197.5 C 397.425,209.048 399.425,221.048 399.5,233.5C 300.833,233.5 202.167,233.5 103.5,233.5C 103.5,233.167 103.5,232.833 103.5,232.5C 191.5,232.5 279.5,232.5 367.5,232.5C 372.833,232.5 378.167,232.5 383.5,232.5C 388.5,232.5 393.5,232.5 398.5,232.5C 396.756,220.884 395.089,209.217 393.5,197.5 Z"/></g>
<g><path style="opacity:1" fill="#2c1f27" d="M 98.5,233.5 C 100.167,233.5 101.833,233.5 103.5,233.5C 105.969,234.317 108.635,234.817 111.5,235C 132.833,235.333 154.167,235.667 175.5,236C 179.339,236.459 183.172,236.959 187,237.5C 198.494,236.233 209.994,236.233 221.5,237.5C 224.877,237.048 228.211,236.382 231.5,235.5C 235.476,236.164 239.476,236.497 243.5,236.5C 243.67,237.822 243.337,238.989 242.5,240C 246.152,240.499 249.818,240.665 253.5,240.5C 253.281,239.325 253.614,238.325 254.5,237.5C 254.94,238.698 255.273,239.865 255.5,241C 260.823,241.499 266.156,241.666 271.5,241.5C 271.5,240.167 271.5,238.833 271.5,237.5C 268.042,239.075 264.376,239.575 260.5,239C 262.591,236.897 265.091,235.731 268,235.5C 308.162,235.523 348.329,235.69 388.5,236C 388.5,237.333 388.5,238.667 388.5,240C 385.968,240.619 383.635,241.619 381.5,243C 371.94,244.199 362.44,244.366 353,243.5C 352,244.167 351,244.833 350,245.5C 345.74,245.279 340.907,244.946 335.5,244.5C 335.5,243.5 335.5,242.5 335.5,241.5C 330.156,241.334 324.823,241.501 319.5,242C 318.359,242.741 318.359,243.575 319.5,244.5C 318.311,245.429 316.978,245.762 315.5,245.5C 314.717,249.146 314.55,252.812 315,256.5C 316.011,255.663 317.178,255.33 318.5,255.5C 319.532,257.434 320.198,259.6 320.5,262C 320.642,266.007 320.142,269.84 319,273.5C 319.414,273.957 319.914,274.291 320.5,274.5C 321.167,271.833 321.833,269.167 322.5,266.5C 325.014,268.218 325.847,270.551 325,273.5C 324.346,272.304 323.846,272.304 323.5,273.5C 324.955,275.22 325.788,277.22 326,279.5C 327.726,278.424 329.559,278.257 331.5,279C 332.222,280.751 333.222,282.251 334.5,283.5C 334.014,286.827 332.18,289.161 329,290.5C 320.87,289.379 312.703,289.212 304.5,290C 303.975,290.692 303.308,291.192 302.5,291.5C 300.556,290.811 298.556,290.311 296.5,290C 299.456,288.736 301.456,286.569 302.5,283.5C 305.254,285.002 307.921,286.669 310.5,288.5C 311.308,288.192 311.975,287.692 312.5,287C 309.527,285.69 307.193,283.69 305.5,281C 308.916,280.107 312.083,280.607 315,282.5C 315.557,280.385 316.391,278.385 317.5,276.5C 316.758,275.713 315.925,275.047 315,274.5C 314.689,272.444 314.189,270.444 313.5,268.5C 312.675,267.614 311.675,267.281 310.5,267.5C 309.328,266.295 307.995,266.295 306.5,267.5C 304.668,272.686 302.334,277.686 299.5,282.5C 298.167,283.167 296.833,283.833 295.5,284.5C 294.725,282.604 293.725,280.937 292.5,279.5C 292.694,276.67 293.361,274.004 294.5,271.5C 295.5,271.5 296.5,271.5 297.5,271.5C 297.338,269.473 297.505,267.473 298,265.5C 298.414,265.043 298.914,264.709 299.5,264.5C 300.595,260.246 301.928,256.079 303.5,252C 302.314,250.588 300.981,249.421 299.5,248.5C 300.711,246.437 299.877,245.437 297,245.5C 277.01,244.48 258.676,244.48 242,245.5C 238.902,243.953 235.569,243.286 232,243.5C 218.926,245.931 205.76,246.431 192.5,245C 199.712,243.966 206.879,242.466 214,240.5C 216.333,240.833 218.667,241.167 221,241.5C 221.75,240.874 222.584,240.374 223.5,240C 221,239.833 218.5,239.667 216,239.5C 207.909,240.829 199.743,241.662 191.5,242C 191,242.5 190.5,243 190,243.5C 189.667,247.833 189.333,252.167 189,256.5C 188,257.167 187,257.833 186,258.5C 185.667,254.5 185.333,250.5 185,246.5C 182.871,245.137 182.371,245.471 183.5,247.5C 182.726,251.779 182.226,256.113 182,260.5C 180.702,261.56 179.535,262.726 178.5,264C 178.667,264.5 178.833,265 179,265.5C 180.171,262.962 181.671,262.462 183.5,264C 182.722,267.147 181.889,270.313 181,273.5C 179.491,274.09 177.991,274.756 176.5,275.5C 178.086,277.173 178.753,279.173 178.5,281.5C 177.325,281.719 176.325,281.386 175.5,280.5C 174.443,278.151 172.943,276.151 171,274.5C 170.51,273.207 170.343,271.873 170.5,270.5C 172.158,269.819 173.825,268.985 175.5,268C 174.941,267.275 174.608,266.442 174.5,265.5C 175.479,261.26 176.812,257.26 178.5,253.5C 178.679,250.869 178.013,248.535 176.5,246.5C 153.823,248.147 131.156,249.147 108.5,249.5C 107.833,249.5 107.167,249.5 106.5,249.5C 102.833,249.5 99.1667,249.5 95.5,249.5C 94.7255,254.797 94.3921,260.13 94.5,265.5C 92.228,265.089 91.8947,263.922 93.5,262C 92.5279,259.889 91.6946,257.722 91,255.5C 90.6667,257.167 90.3333,258.833 90,260.5C 89.3333,257.833 88.6667,255.167 88,252.5C 87.7508,253.624 87.2508,254.624 86.5,255.5C 85.1667,250.167 85.1667,244.833 86.5,239.5C 87.2164,240.311 88.0497,240.978 89,241.5C 91.0466,240.391 93.2133,239.724 95.5,239.5C 95.087,236.68 96.087,234.68 98.5,233.5 Z"/></g>
<g><path style="opacity:1" fill="#222917" d="M 170.5,270.5 C 170.167,270.5 169.833,270.5 169.5,270.5C 169.5,270.167 169.5,269.833 169.5,269.5C 172.465,265.281 174.465,260.614 175.5,255.5C 177.28,254.01 177.946,252.01 177.5,249.5C 154.5,249.5 131.5,249.5 108.5,249.5C 131.156,249.147 153.823,248.147 176.5,246.5C 178.013,248.535 178.679,250.869 178.5,253.5C 176.812,257.26 175.479,261.26 174.5,265.5C 174.608,266.442 174.941,267.275 175.5,268C 173.825,268.985 172.158,269.819 170.5,270.5 Z"/></g>
<g><path style="opacity:1" fill="#1e2916" d="M 401.5,249.5 C 374.167,249.5 346.833,249.5 319.5,249.5C 346.373,248.825 373.373,248.158 400.5,247.5C 401.298,247.957 401.631,248.624 401.5,249.5 Z"/></g>
<g><path style="opacity:1" fill="#34591d" d="M 108.5,250.5 C 108.5,250.167 108.5,249.833 108.5,249.5C 131.5,249.5 154.5,249.5 177.5,249.5C 177.946,252.01 177.28,254.01 175.5,255.5C 175.5,253.833 175.5,252.167 175.5,250.5C 153.167,250.5 130.833,250.5 108.5,250.5 Z"/></g>
<g><path style="opacity:1" fill="#325719" d="M 197.5,249.5 C 231.337,249.168 265.004,249.502 298.5,250.5C 265.165,250.333 231.832,250.5 198.5,251C 197.186,253.605 197.186,256.105 198.5,258.5C 199.167,260.833 199.833,263.167 200.5,265.5C 199.21,264.942 198.377,263.942 198,262.5C 197.063,258.916 195.896,255.416 194.5,252C 194.748,250.251 195.748,249.418 197.5,249.5 Z"/></g>
<g><path style="opacity:1" fill="#355b1c" d="M 319.5,249.5 C 346.833,249.5 374.167,249.5 401.5,249.5C 402.338,249.842 402.672,250.508 402.5,251.5C 402.821,256.695 402.487,261.695 401.5,266.5C 401.5,261.167 401.5,255.833 401.5,250.5C 374.5,250.5 347.5,250.5 320.5,250.5C 320.5,251.833 320.5,253.167 320.5,254.5C 319.549,253.081 319.216,251.415 319.5,249.5 Z"/></g>
<g><path style="opacity:1" fill="#3f7c20" d="M 298.5,250.5 C 299.497,250.47 300.164,250.97 300.5,252C 295.878,270.751 285.878,285.918 270.5,297.5C 270.5,296.5 270.5,295.5 270.5,294.5C 271.5,294.5 272.5,294.5 273.5,294.5C 273.34,292.801 273.506,291.134 274,289.5C 274.308,290.308 274.808,290.975 275.5,291.5C 277.543,288.584 279.376,285.584 281,282.5C 281.741,281.359 282.575,281.359 283.5,282.5C 284.298,280.922 284.798,279.256 285,277.5C 286,278.833 287,278.833 288,277.5C 290.722,271.056 293.722,264.722 297,258.5C 297.497,256.19 297.663,253.857 297.5,251.5C 264.832,251.333 232.165,251.5 199.5,252C 198.62,253.356 198.286,254.856 198.5,256.5C 198.5,257.167 198.5,257.833 198.5,258.5C 197.186,256.105 197.186,253.605 198.5,251C 231.832,250.5 265.165,250.333 298.5,250.5 Z"/></g>
<g><path style="opacity:1" fill="#3e7c1d" d="M 401.5,266.5 C 401.612,272.817 399.946,278.483 396.5,283.5C 397.075,279.674 398.241,276.008 400,272.5C 400.811,265.586 400.645,258.752 399.5,252C 373.833,251.333 348.167,251.333 322.5,252C 322.034,253.299 322.034,254.799 322.5,256.5C 322.5,257.5 322.5,258.5 322.5,259.5C 321.691,257.972 321.024,256.306 320.5,254.5C 320.5,253.167 320.5,251.833 320.5,250.5C 347.5,250.5 374.5,250.5 401.5,250.5C 401.5,255.833 401.5,261.167 401.5,266.5 Z"/></g>
<g><path style="opacity:1" fill="#39870d" d="M 270.5,297.5 C 267.629,299.435 264.629,301.101 261.5,302.5C 253.48,303.761 245.48,303.761 237.5,302.5C 229.899,300.034 223.232,296.034 217.5,290.5C 217.267,288.938 216.6,287.605 215.5,286.5C 219.369,287.701 222.369,290.034 224.5,293.5C 259.446,303.862 281.78,291.529 291.5,256.5C 260.5,256.5 229.5,256.5 198.5,256.5C 198.286,254.856 198.62,253.356 199.5,252C 232.165,251.5 264.832,251.333 297.5,251.5C 297.663,253.857 297.497,256.19 297,258.5C 293.722,264.722 290.722,271.056 288,277.5C 287,278.833 286,278.833 285,277.5C 284.798,279.256 284.298,280.922 283.5,282.5C 282.575,281.359 281.741,281.359 281,282.5C 279.376,285.584 277.543,288.584 275.5,291.5C 274.808,290.975 274.308,290.308 274,289.5C 273.506,291.134 273.34,292.801 273.5,294.5C 272.5,294.5 271.5,294.5 270.5,294.5C 270.5,295.5 270.5,296.5 270.5,297.5 Z"/></g>
<g><path style="opacity:1" fill="#37870d" d="M 396.5,283.5 C 393.525,288.47 389.858,292.804 385.5,296.5C 378.626,299.914 371.292,301.247 363.5,300.5C 359.349,299.227 355.349,297.56 351.5,295.5C 356.514,296.901 361.68,297.901 367,298.5C 369.167,298.167 371.333,297.833 373.5,297.5C 372.37,296.378 371.703,295.044 371.5,293.5C 384.198,291.306 392.365,283.973 396,271.5C 397.05,266.552 397.55,261.552 397.5,256.5C 372.5,256.5 347.5,256.5 322.5,256.5C 322.034,254.799 322.034,253.299 322.5,252C 348.167,251.333 373.833,251.333 399.5,252C 400.645,258.752 400.811,265.586 400,272.5C 398.241,276.008 397.075,279.674 396.5,283.5 Z"/></g>
<g><path style="opacity:1" fill="#d4d2d6" d="M 106.5,249.5 C 103.375,250.479 100.042,250.813 96.5,250.5C 97.6682,251.765 98.6682,253.765 99.5,256.5C 99.3333,257.167 99.1667,257.833 99,258.5C 98.3333,257.167 97.6667,257.167 97,258.5C 96.501,262.821 96.3343,267.154 96.5,271.5C 95.5418,269.698 94.8751,267.698 94.5,265.5C 94.3921,260.13 94.7255,254.797 95.5,249.5C 99.1667,249.5 102.833,249.5 106.5,249.5 Z"/></g>
<g><path style="opacity:1" fill="#7bca04" d="M 106.5,255.5 C 126.326,256.497 146.326,256.83 166.5,256.5C 162.562,271.94 153.562,283.44 139.5,291C 126.422,297.034 114.755,295.2 104.5,285.5C 103.833,285.5 103.5,285.167 103.5,284.5C 109.442,283.264 110.109,280.598 105.5,276.5C 104.6,271.228 104.267,265.895 104.5,260.5C 104.402,258.447 105.069,256.78 106.5,255.5 Z"/></g>
<g><path style="opacity:1" fill="#7bc903" d="M 198.5,256.5 C 229.5,256.5 260.5,256.5 291.5,256.5C 281.78,291.529 259.446,303.862 224.5,293.5C 222.369,290.034 219.369,287.701 215.5,286.5C 212.473,284.14 209.806,281.473 207.5,278.5C 205.417,274 203.084,269.666 200.5,265.5C 199.833,263.167 199.167,260.833 198.5,258.5C 198.5,257.833 198.5,257.167 198.5,256.5 Z"/></g>
<g><path style="opacity:1" fill="#7ac904" d="M 322.5,256.5 C 347.5,256.5 372.5,256.5 397.5,256.5C 397.55,261.552 397.05,266.552 396,271.5C 392.365,283.973 384.198,291.306 371.5,293.5C 363.898,294.273 356.731,292.94 350,289.5C 349.043,291.709 347.876,291.543 346.5,289C 344.846,288.392 343.179,287.892 341.5,287.5C 332.679,279.86 326.346,270.527 322.5,259.5C 322.5,258.5 322.5,257.5 322.5,256.5 Z"/></g>
<g><path style="opacity:1" fill="#f5fbf0" d="M 106.5,249.5 C 107.167,249.5 107.833,249.5 108.5,249.5C 108.5,249.833 108.5,250.167 108.5,250.5C 107.058,251.82 106.392,253.486 106.5,255.5C 105.069,256.78 104.402,258.447 104.5,260.5C 103.35,265.316 103.184,270.316 104,275.5C 104.383,276.056 104.883,276.389 105.5,276.5C 110.109,280.598 109.442,283.264 103.5,284.5C 101.605,283.027 99.9387,281.36 98.5,279.5C 97.6295,276.888 96.9628,274.221 96.5,271.5C 96.3343,267.154 96.501,262.821 97,258.5C 97.6667,257.167 98.3333,257.167 99,258.5C 99.1667,257.833 99.3333,257.167 99.5,256.5C 98.6682,253.765 97.6682,251.765 96.5,250.5C 100.042,250.813 103.375,250.479 106.5,249.5 Z"/></g>
<g><path style="opacity:1" fill="#c7e591" d="M 104.5,260.5 C 104.267,265.895 104.6,271.228 105.5,276.5C 104.883,276.389 104.383,276.056 104,275.5C 103.184,270.316 103.35,265.316 104.5,260.5 Z"/></g>
<g><path style="opacity:1" fill="#37880d" d="M 108.5,250.5 C 130.833,250.5 153.167,250.5 175.5,250.5C 175.5,252.167 175.5,253.833 175.5,255.5C 174.465,260.614 172.465,265.281 169.5,269.5C 167.431,271.573 165.098,273.24 162.5,274.5C 162.446,279.056 160.112,281.556 155.5,282C 155.833,282.333 156.167,282.667 156.5,283C 153.853,283.315 153.187,284.482 154.5,286.5C 152.994,287.747 151.494,287.747 150,286.5C 148.244,287.421 148.077,288.588 149.5,290C 148.201,291.326 146.868,292.66 145.5,294C 141.252,295.454 136.919,296.788 132.5,298C 125.687,298.871 119.021,298.371 112.5,296.5C 108.914,295.25 106.248,292.916 104.5,289.5C 103.595,288.036 103.595,286.702 104.5,285.5C 114.755,295.2 126.422,297.034 139.5,291C 153.562,283.44 162.562,271.94 166.5,256.5C 146.326,256.83 126.326,256.497 106.5,255.5C 106.392,253.486 107.058,251.82 108.5,250.5 Z"/></g>
<g><path style="opacity:1" fill="#885239" d="M 185.5,266.5 C 188.215,269.583 190.215,273.25 191.5,277.5C 187.833,278.833 184.167,278.833 180.5,277.5C 182.99,274.188 184.657,270.522 185.5,266.5 Z"/></g>
<g><path style="opacity:1" fill="#835139" d="M 310.5,267.5 C 312.119,271.069 313.452,274.736 314.5,278.5C 311.5,278.5 308.5,278.5 305.5,278.5C 305.737,275.353 306.57,272.353 308,269.5C 308.417,268.244 309.25,267.577 310.5,267.5 Z"/></g>
<g><path style="opacity:1" fill="#28281a" d="M 319.5,249.5 C 319.216,251.415 319.549,253.081 320.5,254.5C 321.024,256.306 321.691,257.972 322.5,259.5C 326.346,270.527 332.679,279.86 341.5,287.5C 342.167,288.5 342.833,289.5 343.5,290.5C 340.233,288.573 337.233,286.239 334.5,283.5C 333.222,282.251 332.222,280.751 331.5,279C 329.559,278.257 327.726,278.424 326,279.5C 325.788,277.22 324.955,275.22 323.5,273.5C 323.846,272.304 324.346,272.304 325,273.5C 325.847,270.551 325.014,268.218 322.5,266.5C 321.833,269.167 321.167,271.833 320.5,274.5C 319.914,274.291 319.414,273.957 319,273.5C 320.142,269.84 320.642,266.007 320.5,262C 320.198,259.6 319.532,257.434 318.5,255.5C 318.205,253.265 318.539,251.265 319.5,249.5 Z"/></g>
<g><path style="opacity:0.004" fill="#fefffe" d="M 1.5,273.5 C 2.83333,274.167 2.83333,274.167 1.5,273.5 Z"/></g>
<g><path style="opacity:1" fill="#232c19" d="M 197.5,249.5 C 231.329,248.502 265.329,248.168 299.5,248.5C 300.981,249.421 302.314,250.588 303.5,252C 301.928,256.079 300.595,260.246 299.5,264.5C 298.914,264.709 298.414,265.043 298,265.5C 297.505,267.473 297.338,269.473 297.5,271.5C 296.5,271.5 295.5,271.5 294.5,271.5C 293.361,274.004 292.694,276.67 292.5,279.5C 291.596,280.209 291.263,281.209 291.5,282.5C 288.86,282.954 286.527,284.121 284.5,286C 279.127,294.897 271.461,300.397 261.5,302.5C 264.629,301.101 267.629,299.435 270.5,297.5C 285.878,285.918 295.878,270.751 300.5,252C 300.164,250.97 299.497,250.47 298.5,250.5C 265.004,249.502 231.337,249.168 197.5,249.5 Z"/></g>
<g><path style="opacity:1" fill="#2a4917" d="M 163.5,279.5 C 161.77,283.045 159.104,285.712 155.5,287.5C 155.369,286.761 155.536,286.094 156,285.5C 158.663,283.666 161.163,281.666 163.5,279.5 Z"/></g>
<g><path style="opacity:1" fill="#27390a" d="M 207.5,278.5 C 209.806,281.473 212.473,284.14 215.5,286.5C 216.6,287.605 217.267,288.938 217.5,290.5C 213.043,287.381 209.709,283.381 207.5,278.5 Z"/></g>
<g><path style="opacity:1" fill="#4a7425" d="M 98.5,279.5 C 99.9387,281.36 101.605,283.027 103.5,284.5C 103.5,285.167 103.833,285.5 104.5,285.5C 103.595,286.702 103.595,288.036 104.5,289.5C 103.5,288.833 102.5,288.167 101.5,287.5C 99.8975,285.113 98.8975,282.446 98.5,279.5 Z"/></g>
<g><path style="opacity:1" fill="#243115" d="M 402.5,251.5 C 404.933,265.338 402.599,278.338 395.5,290.5C 392.443,293.026 389.109,295.026 385.5,296.5C 389.858,292.804 393.525,288.47 396.5,283.5C 399.946,278.483 401.612,272.817 401.5,266.5C 402.487,261.695 402.821,256.695 402.5,251.5 Z"/></g>
<g><path style="opacity:0.004" fill="#fefffe" d="M 464.5,289.5 C 465.833,290.167 465.833,290.167 464.5,289.5 Z"/></g>
<g><path style="opacity:1" fill="#529e0f" d="M 341.5,287.5 C 343.179,287.892 344.846,288.392 346.5,289C 347.876,291.543 349.043,291.709 350,289.5C 356.731,292.94 363.898,294.273 371.5,293.5C 371.703,295.044 372.37,296.378 373.5,297.5C 371.333,297.833 369.167,298.167 367,298.5C 361.68,297.901 356.514,296.901 351.5,295.5C 348.833,293.833 346.167,292.167 343.5,290.5C 342.833,289.5 342.167,288.5 341.5,287.5 Z"/></g>
<g><path style="opacity:0.004" fill="#fefffe" d="M 6.5,295.5 C 7.83333,296.167 7.83333,296.167 6.5,295.5 Z"/></g>
<g><path style="opacity:1" fill="#212d11" d="M 343.5,290.5 C 346.167,292.167 348.833,293.833 351.5,295.5C 355.349,297.56 359.349,299.227 363.5,300.5C 358.053,300.39 353.053,298.89 348.5,296C 345.727,295.108 344.06,293.275 343.5,290.5 Z"/></g>
<g><path style="opacity:1" fill="#3f7d21" d="M 169.5,269.5 C 169.5,269.833 169.5,270.167 169.5,270.5C 167.474,273.518 165.474,276.518 163.5,279.5C 161.163,281.666 158.663,283.666 156,285.5C 155.536,286.094 155.369,286.761 155.5,287.5C 153.5,289.5 151.5,291.5 149.5,293.5C 144.332,295.912 138.998,298.079 133.5,300C 128.833,300.667 124.167,300.667 119.5,300C 116.558,299.856 114.224,298.689 112.5,296.5C 119.021,298.371 125.687,298.871 132.5,298C 136.919,296.788 141.252,295.454 145.5,294C 146.868,292.66 148.201,291.326 149.5,290C 148.077,288.588 148.244,287.421 150,286.5C 151.494,287.747 152.994,287.747 154.5,286.5C 153.187,284.482 153.853,283.315 156.5,283C 156.167,282.667 155.833,282.333 155.5,282C 160.112,281.556 162.446,279.056 162.5,274.5C 165.098,273.24 167.431,271.573 169.5,269.5 Z"/></g>
<g><path style="opacity:1" fill="#9e5534" d="M 112.5,331.5 C 109.626,329.065 106.293,327.731 102.5,327.5C 100.437,324.382 98.604,321.048 97,317.5C 96.5008,312.845 96.3342,308.179 96.5,303.5C 98.3885,304.604 100.055,305.937 101.5,307.5C 103.531,311.507 106.864,313.507 111.5,313.5C 111.5,314.5 111.5,315.5 111.5,316.5C 117.824,319.122 124.491,320.122 131.5,319.5C 140.45,319.013 148.783,316.513 156.5,312C 159.534,309.484 162.868,307.484 166.5,306C 169.177,302.991 172.177,300.324 175.5,298C 183.167,297.333 190.833,297.333 198.5,298C 221.025,323.128 247.691,328.628 278.5,314.5C 284.001,310.493 289.334,306.327 294.5,302C 295.167,300.667 295.833,299.333 296.5,298C 304.5,297.333 312.5,297.333 320.5,298C 325.281,301.49 329.948,305.156 334.5,309C 342.291,312.897 350.291,316.231 358.5,319C 366.91,319.324 375.244,319.491 383.5,319.5C 382.43,322.402 380.764,324.902 378.5,327C 379.5,328 380.5,329 381.5,330C 380.167,330.667 378.833,331.333 377.5,332C 289.149,332.82 200.816,332.654 112.5,331.5 Z"/></g>
<g><path style="opacity:0.004" fill="#fefffe" d="M 36.5,301.5 C 37.8333,302.167 37.8333,302.167 36.5,301.5 Z"/></g>
<g><path style="opacity:1" fill="#26291a" d="M 101.5,287.5 C 102.5,288.167 103.5,288.833 104.5,289.5C 106.248,292.916 108.914,295.25 112.5,296.5C 114.224,298.689 116.558,299.856 119.5,300C 124.167,300.667 128.833,300.667 133.5,300C 138.998,298.079 144.332,295.912 149.5,293.5C 147.763,295.88 145.43,297.547 142.5,298.5C 141.614,299.325 141.281,300.325 141.5,301.5C 132.94,302.018 124.44,302.685 116,303.5C 115.29,302.027 114.124,301.36 112.5,301.5C 112.649,300.448 112.483,299.448 112,298.5C 106.64,296.528 103.14,292.861 101.5,287.5 Z"/></g>
<g><path style="opacity:1" fill="#9e5c39" d="M 399.5,304.5 C 400.643,307.976 400.81,311.642 400,315.5C 398.598,319.975 396.431,323.975 393.5,327.5C 393.167,327.5 392.833,327.5 392.5,327.5C 392.167,327.5 391.833,327.5 391.5,327.5C 391.44,326.957 391.107,326.624 390.5,326.5C 388.833,327.167 387.167,327.833 385.5,328.5C 384.417,327.635 384.251,326.635 385,325.5C 390.789,321.855 393.789,316.521 394,309.5C 395.73,307.598 397.563,305.931 399.5,304.5 Z"/></g>
<g><path style="opacity:1" fill="#7f4133" d="M 209.5,301.5 C 208.07,301.579 206.736,301.246 205.5,300.5C 204.252,298.541 202.585,297.041 200.5,296C 189.8,295.237 179.133,295.404 168.5,296.5C 168.511,300.352 166.511,302.185 162.5,302C 161.352,303.649 160.019,305.149 158.5,306.5C 151.801,310.021 144.801,312.854 137.5,315C 136.663,316.011 136.33,317.178 136.5,318.5C 134.585,318.216 132.919,318.549 131.5,319.5C 124.491,320.122 117.824,319.122 111.5,316.5C 111.5,315.5 111.5,314.5 111.5,313.5C 106.864,313.507 103.531,311.507 101.5,307.5C 126.511,318.75 148.511,314.416 167.5,294.5C 179.486,293.334 191.486,293.167 203.5,294C 206.094,296.086 208.094,298.586 209.5,301.5 Z"/></g>
<g><path style="opacity:0.004" fill="#fefffe" d="M 425.5,319.5 C 426.833,320.167 426.833,320.167 425.5,319.5 Z"/></g>
<g><path style="opacity:1" fill="#803f2e" d="M 392.5,307.5 C 394.816,306.194 397.15,304.861 399.5,303.5C 399.5,303.833 399.5,304.167 399.5,304.5C 397.563,305.931 395.73,307.598 394,309.5C 393.789,316.521 390.789,321.855 385,325.5C 384.251,326.635 384.417,327.635 385.5,328.5C 387.167,327.833 388.833,327.167 390.5,326.5C 391.107,326.624 391.44,326.957 391.5,327.5C 385.448,331.518 378.781,334.018 371.5,335C 288.167,335.667 204.833,335.667 121.5,335C 119.975,333.991 118.308,333.491 116.5,333.5C 115.005,333.011 113.671,332.345 112.5,331.5C 200.816,332.654 289.149,332.82 377.5,332C 378.833,331.333 380.167,330.667 381.5,330C 380.5,329 379.5,328 378.5,327C 380.764,324.902 382.43,322.402 383.5,319.5C 375.244,319.491 366.91,319.324 358.5,319C 350.291,316.231 342.291,312.897 334.5,309C 329.948,305.156 325.281,301.49 320.5,298C 312.5,297.333 304.5,297.333 296.5,298C 295.833,299.333 295.167,300.667 294.5,302C 289.334,306.327 284.001,310.493 278.5,314.5C 247.691,328.628 221.025,323.128 198.5,298C 190.833,297.333 183.167,297.333 175.5,298C 172.177,300.324 169.177,302.991 166.5,306C 162.868,307.484 159.534,309.484 156.5,312C 148.783,316.513 140.45,319.013 131.5,319.5C 132.919,318.549 134.585,318.216 136.5,318.5C 136.33,317.178 136.663,316.011 137.5,315C 144.801,312.854 151.801,310.021 158.5,306.5C 160.019,305.149 161.352,303.649 162.5,302C 166.511,302.185 168.511,300.352 168.5,296.5C 179.133,295.404 189.8,295.237 200.5,296C 202.585,297.041 204.252,298.541 205.5,300.5C 206.736,301.246 208.07,301.579 209.5,301.5C 210.882,304.394 212.882,306.894 215.5,309C 223.018,312.925 230.685,316.592 238.5,320C 244.833,320.667 251.167,320.667 257.5,320C 260.647,319.172 263.314,317.672 265.5,315.5C 276.656,310.534 286.323,303.367 294.5,294C 305.5,293.333 316.5,293.333 327.5,294C 331.964,299.47 337.297,303.803 343.5,307C 359.895,316.799 376.228,316.965 392.5,307.5 Z"/></g>
<g><path style="opacity:1" fill="#784238" d="M 209.5,301.5 C 214.471,304.99 219.471,308.49 224.5,312C 237.631,319.049 251.298,320.215 265.5,315.5C 263.314,317.672 260.647,319.172 257.5,320C 251.167,320.667 244.833,320.667 238.5,320C 230.685,316.592 223.018,312.925 215.5,309C 212.882,306.894 210.882,304.394 209.5,301.5 Z"/></g>
<g><path style="opacity:1" fill="#243519" d="M 237.5,302.5 C 245.48,303.761 253.48,303.761 261.5,302.5C 255.233,305.36 248.567,306.193 241.5,305C 239.68,304.8 238.347,303.966 237.5,302.5 Z"/></g>
<g><path style="opacity:1" fill="#2e2123" d="M 101.5,327.5 C 100.559,329.466 99.5588,331.466 98.5,333.5C 101.482,333.713 104.482,334.047 107.5,334.5C 107.808,335.308 108.308,335.975 109,336.5C 109.333,341.5 109.667,346.5 110,351.5C 111.049,353.107 112.549,353.773 114.5,353.5C 114.792,349.996 116.792,348.329 120.5,348.5C 122.189,348.726 123.855,349.059 125.5,349.5C 136.737,348.21 148.07,347.543 159.5,347.5C 176.492,347.323 192.492,347.99 207.5,349.5C 207.5,348.5 207.5,347.5 207.5,346.5C 219.088,346.597 230.588,347.264 242,348.5C 256.667,348.5 271.333,348.5 286,348.5C 286.833,347.667 287.667,346.833 288.5,346C 320.165,345.5 351.832,345.333 383.5,345.5C 383.299,348.508 382.966,351.508 382.5,354.5C 382.415,356.333 381.748,357.666 380.5,358.5C 381.301,356.958 381.634,355.292 381.5,353.5C 337.505,352.167 293.172,351.5 248.5,351.5C 204.167,351.833 159.833,352.167 115.5,352.5C 115.624,353.107 115.957,353.44 116.5,353.5C 117.551,358.607 119.885,362.941 123.5,366.5C 123.427,368.027 124.094,369.027 125.5,369.5C 128.792,374.46 132.792,378.793 137.5,382.5C 139.327,385.666 141.994,387.666 145.5,388.5C 143.801,388.66 142.134,388.494 140.5,388C 138.056,387.196 136.222,385.696 135,383.5C 133.017,385.93 133.183,388.263 135.5,390.5C 135.291,391.086 134.957,391.586 134.5,392C 136.167,392.333 137.833,392.667 139.5,393C 142.064,395.276 141.73,397.276 138.5,399C 139.337,400.011 139.67,401.178 139.5,402.5C 143.818,403.943 148.318,404.943 153,405.5C 154.059,405.37 154.892,404.87 155.5,404C 152.785,403.125 151.452,401.292 151.5,398.5C 154.588,398.361 157.255,397.361 159.5,395.5C 159.759,399.068 161.759,400.401 165.5,399.5C 165.5,401.5 165.5,403.5 165.5,405.5C 166.833,405.5 168.167,405.5 169.5,405.5C 169.351,406.552 169.517,407.552 170,408.5C 172.74,407.718 175.574,407.218 178.5,407C 177.5,406.667 176.5,406.333 175.5,406C 177.667,405.833 179.833,405.667 182,405.5C 209.153,405.655 236.32,405.822 263.5,406C 268.802,406.829 274.136,407.329 279.5,407.5C 295.455,405.602 311.455,405.102 327.5,406C 324.063,406.649 323.896,407.149 327,407.5C 327.833,407.333 328.667,407.167 329.5,407C 329.167,406.667 328.833,406.333 328.5,406C 332.089,405.793 335.589,405.293 339,404.5C 341.97,406.473 345.137,406.473 348.5,404.5C 346.083,403.928 343.916,402.928 342,401.5C 340.273,402.374 338.44,402.207 336.5,401C 338.708,399.254 341.208,398.087 344,397.5C 347.295,398.76 350.628,400.093 354,401.5C 356.413,400.976 358.58,399.976 360.5,398.5C 357.334,397.766 354.334,396.6 351.5,395C 351.833,394.667 352.167,394.333 352.5,394C 356.611,393.698 360.611,392.864 364.5,391.5C 365.5,391.833 366.5,392.167 367.5,392.5C 361.174,395.048 361.174,396.714 367.5,397.5C 359.017,403.947 349.351,407.78 338.5,409C 276.469,409.978 214.469,409.644 152.5,408C 127.457,400.954 109.957,385.454 100,361.5C 96.7902,351.732 95.7902,341.732 97,331.5C 97.7921,329.356 99.2921,328.023 101.5,327.5 Z"/></g>
<g><path style="opacity:1" fill="#b18651" d="M 381.5,353.5 C 380.833,354.5 380.167,355.5 379.5,356.5C 379.5,355.167 379.5,353.833 379.5,352.5C 372.833,352.5 366.167,352.5 359.5,352.5C 278.332,352.167 197.332,352.501 116.5,353.5C 115.957,353.44 115.624,353.107 115.5,352.5C 159.833,352.167 204.167,351.833 248.5,351.5C 293.172,351.5 337.505,352.167 381.5,353.5 Z"/></g>
<g><path style="opacity:1" fill="#f0b76d" d="M 359.5,352.5 C 359.5,353.167 359.167,353.5 358.5,353.5C 280.833,353.333 203.166,353.5 125.5,354C 126.706,355.018 126.373,355.518 124.5,355.5C 122.865,354.954 121.199,354.62 119.5,354.5C 120.257,358.683 121.59,362.683 123.5,366.5C 119.885,362.941 117.551,358.607 116.5,353.5C 197.332,352.501 278.332,352.167 359.5,352.5 Z"/></g>
<g><path style="opacity:0.004" fill="#fefffe" d="M 11.5,353.5 C 12.8333,354.167 12.8333,354.167 11.5,353.5 Z"/></g>
<g><path style="opacity:1" fill="#fdb358" d="M 358.5,353.5 C 357.588,355.595 356.421,357.595 355,359.5C 343.486,370.984 329.653,378.151 313.5,381C 262.834,381.5 212.168,381.667 161.5,381.5C 147.584,379.584 135.418,373.917 125,364.5C 124.873,365.777 125.373,366.943 126.5,368C 126.43,368.765 126.097,369.265 125.5,369.5C 124.094,369.027 123.427,368.027 123.5,366.5C 121.59,362.683 120.257,358.683 119.5,354.5C 121.199,354.62 122.865,354.954 124.5,355.5C 126.373,355.518 126.706,355.018 125.5,354C 203.166,353.5 280.833,353.333 358.5,353.5 Z"/></g>
<g><path style="opacity:1" fill="#452011" d="M 381.5,353.5 C 381.634,355.292 381.301,356.958 380.5,358.5C 380.246,361.014 379.413,363.348 378,365.5C 371.504,372.996 364.671,380.163 357.5,387C 355.19,387.497 352.857,387.663 350.5,387.5C 363.968,380.7 373.635,370.366 379.5,356.5C 380.167,355.5 380.833,354.5 381.5,353.5 Z"/></g>
<g><path style="opacity:1" fill="#d88835" d="M 161.5,381.5 C 157.514,382.174 153.848,383.841 150.5,386.5C 152.925,388.145 155.592,389.311 158.5,390C 218.499,390.5 278.499,390.667 338.5,390.5C 279.336,391.499 220.002,391.832 160.5,391.5C 152.288,389.874 144.621,386.874 137.5,382.5C 132.792,378.793 128.792,374.46 125.5,369.5C 126.097,369.265 126.43,368.765 126.5,368C 125.373,366.943 124.873,365.777 125,364.5C 135.418,373.917 147.584,379.584 161.5,381.5 Z"/></g>
<g><path style="opacity:0.004" fill="#fefffe" d="M 482.5,380.5 C 483.833,381.167 483.833,381.167 482.5,380.5 Z"/></g>
<g><path style="opacity:1" fill="#dd8228" d="M 359.5,352.5 C 366.167,352.5 372.833,352.5 379.5,352.5C 379.5,353.833 379.5,355.167 379.5,356.5C 373.635,370.366 363.968,380.7 350.5,387.5C 346.584,388.812 342.584,389.812 338.5,390.5C 278.499,390.667 218.499,390.5 158.5,390C 155.592,389.311 152.925,388.145 150.5,386.5C 153.848,383.841 157.514,382.174 161.5,381.5C 212.168,381.667 262.834,381.5 313.5,381C 329.653,378.151 343.486,370.984 355,359.5C 356.421,357.595 357.588,355.595 358.5,353.5C 359.167,353.5 359.5,353.167 359.5,352.5 Z"/></g>
<g><path style="opacity:0.004" fill="#fefffe" d="M 453.5,389.5 C 454.833,390.167 454.833,390.167 453.5,389.5 Z"/></g>
<g><path style="opacity:1" fill="#3b1d14" d="M 137.5,382.5 C 144.621,386.874 152.288,389.874 160.5,391.5C 218.664,392.499 276.998,392.832 335.5,392.5C 276.668,393.665 217.668,393.832 158.5,393C 154.192,391.342 149.858,389.842 145.5,388.5C 141.994,387.666 139.327,385.666 137.5,382.5 Z"/></g>
<g><path style="opacity:1" fill="#2d1f26" d="M 101.5,327.5 C 101.833,327.5 102.167,327.5 102.5,327.5C 106.293,327.731 109.626,329.065 112.5,331.5C 113.671,332.345 115.005,333.011 116.5,333.5C 117.6,334.558 118.934,335.392 120.5,336C 206.167,336.667 291.833,336.667 377.5,336C 381.674,334.918 385.674,333.251 389.5,331C 390.71,329.961 391.71,328.794 392.5,327.5C 392.833,327.5 393.167,327.5 393.5,327.5C 398.646,328.663 401.313,331.996 401.5,337.5C 399.955,363.278 388.622,383.278 367.5,397.5C 361.174,396.714 361.174,395.048 367.5,392.5C 366.5,392.167 365.5,391.833 364.5,391.5C 360.611,392.864 356.611,393.698 352.5,394C 352.167,394.333 351.833,394.667 351.5,395C 354.334,396.6 357.334,397.766 360.5,398.5C 358.58,399.976 356.413,400.976 354,401.5C 350.628,400.093 347.295,398.76 344,397.5C 341.208,398.087 338.708,399.254 336.5,401C 338.44,402.207 340.273,402.374 342,401.5C 343.916,402.928 346.083,403.928 348.5,404.5C 345.137,406.473 341.97,406.473 339,404.5C 335.589,405.293 332.089,405.793 328.5,406C 328.833,406.333 329.167,406.667 329.5,407C 328.667,407.167 327.833,407.333 327,407.5C 323.896,407.149 324.063,406.649 327.5,406C 311.455,405.102 295.455,405.602 279.5,407.5C 274.136,407.329 268.802,406.829 263.5,406C 236.32,405.822 209.153,405.655 182,405.5C 179.833,405.667 177.667,405.833 175.5,406C 176.5,406.333 177.5,406.667 178.5,407C 175.574,407.218 172.74,407.718 170,408.5C 169.517,407.552 169.351,406.552 169.5,405.5C 168.167,405.5 166.833,405.5 165.5,405.5C 165.5,403.5 165.5,401.5 165.5,399.5C 161.759,400.401 159.759,399.068 159.5,395.5C 157.255,397.361 154.588,398.361 151.5,398.5C 151.452,401.292 152.785,403.125 155.5,404C 154.892,404.87 154.059,405.37 153,405.5C 148.318,404.943 143.818,403.943 139.5,402.5C 139.67,401.178 139.337,400.011 138.5,399C 141.73,397.276 142.064,395.276 139.5,393C 137.833,392.667 136.167,392.333 134.5,392C 134.957,391.586 135.291,391.086 135.5,390.5C 133.183,388.263 133.017,385.93 135,383.5C 136.222,385.696 138.056,387.196 140.5,388C 142.134,388.494 143.801,388.66 145.5,388.5C 149.858,389.842 154.192,391.342 158.5,393C 217.668,393.832 276.668,393.665 335.5,392.5C 339.547,391.982 343.547,391.148 347.5,390C 348.942,389.623 349.942,388.79 350.5,387.5C 352.857,387.663 355.19,387.497 357.5,387C 364.671,380.163 371.504,372.996 378,365.5C 379.413,363.348 380.246,361.014 380.5,358.5C 381.748,357.666 382.415,356.333 382.5,354.5C 382.966,351.508 383.299,348.508 383.5,345.5C 351.832,345.333 320.165,345.5 288.5,346C 287.667,346.833 286.833,347.667 286,348.5C 271.333,348.5 256.667,348.5 242,348.5C 230.588,347.264 219.088,346.597 207.5,346.5C 207.5,347.5 207.5,348.5 207.5,349.5C 192.492,347.99 176.492,347.323 159.5,347.5C 148.07,347.543 136.737,348.21 125.5,349.5C 123.855,349.059 122.189,348.726 120.5,348.5C 116.792,348.329 114.792,349.996 114.5,353.5C 112.549,353.773 111.049,353.107 110,351.5C 109.667,346.5 109.333,341.5 109,336.5C 108.308,335.975 107.808,335.308 107.5,334.5C 104.482,334.047 101.482,333.713 98.5,333.5C 99.5588,331.466 100.559,329.466 101.5,327.5 Z"/></g>
<g><path style="opacity:1" fill="#653615" d="M 350.5,387.5 C 349.942,388.79 348.942,389.623 347.5,390C 343.547,391.148 339.547,391.982 335.5,392.5C 276.998,392.832 218.664,392.499 160.5,391.5C 220.002,391.832 279.336,391.499 338.5,390.5C 342.584,389.812 346.584,388.812 350.5,387.5 Z"/></g>
<g><path style="opacity:1" fill="#3b1e20" d="M 391.5,327.5 C 391.833,327.5 392.167,327.5 392.5,327.5C 391.71,328.794 390.71,329.961 389.5,331C 385.674,333.251 381.674,334.918 377.5,336C 291.833,336.667 206.167,336.667 120.5,336C 118.934,335.392 117.6,334.558 116.5,333.5C 118.308,333.491 119.975,333.991 121.5,335C 204.833,335.667 288.167,335.667 371.5,335C 378.781,334.018 385.448,331.518 391.5,327.5 Z"/></g>
<g><path style="opacity:0.004" fill="#fefffe" d="M 25.5,403.5 C 26.8333,404.167 26.8333,404.167 25.5,403.5 Z"/></g>
<g><path style="opacity:0.004" fill="#fefffe" d="M 97.5,405.5 C 98.8333,406.167 98.8333,406.167 97.5,405.5 Z"/></g>
<g><path style="opacity:0.004" fill="#fefffe" d="M 380.5,408.5 C 381.833,409.167 381.833,409.167 380.5,408.5 Z"/></g>
<g><path style="opacity:0.004" fill="#fefffe" d="M 34.5,416.5 C 35.8333,417.167 35.8333,417.167 34.5,416.5 Z"/></g>
<g><path style="opacity:0.004" fill="#fefffe" d="M 255.5,419.5 C 256.833,420.167 256.833,420.167 255.5,419.5 Z"/></g>
<g><path style="opacity:0.004" fill="#fefffe" d="M 338.5,436.5 C 339.833,437.167 339.833,437.167 338.5,436.5 Z"/></g>
<g><path style="opacity:0.004" fill="#fefffe" d="M 383.5,437.5 C 384.833,438.167 384.833,438.167 383.5,437.5 Z"/></g>
<g><path style="opacity:0.004" fill="#fefffe" d="M 388.5,443.5 C 389.833,444.167 389.833,444.167 388.5,443.5 Z"/></g>
<g><path style="opacity:0.004" fill="#fefffe" d="M 237.5,450.5 C 238.833,451.167 238.833,451.167 237.5,450.5 Z"/></g>
<g><path style="opacity:0.004" fill="#fefffe" d="M 364.5,453.5 C 365.833,454.167 365.833,454.167 364.5,453.5 Z"/></g>
<g><path style="opacity:0.004" fill="#fefffe" d="M 127.5,459.5 C 128.833,460.167 128.833,460.167 127.5,459.5 Z"/></g>
<g><path style="opacity:0.004" fill="#fefffe" d="M 191.5,468.5 C 192.833,469.167 192.833,469.167 191.5,468.5 Z"/></g>
<g><path style="opacity:0.004" fill="#fefffe" d="M 253.5,471.5 C 254.833,472.167 254.833,472.167 253.5,471.5 Z"/></g>
<g><path style="opacity:0.004" fill="#fefffe" d="M 59.5,482.5 C 60.8333,483.167 60.8333,483.167 59.5,482.5 Z"/></g>
<g><path style="opacity:0.004" fill="#fefffe" d="M 68.5,491.5 C 69.8333,492.167 69.8333,492.167 68.5,491.5 Z"/></g>
<g><path style="opacity:0.004" fill="#fefffe" d="M 96.5,495.5 C 97.8333,496.167 97.8333,496.167 96.5,495.5 Z"/></g>
<g><path style="opacity:0.004" fill="#fefffe" d="M 106.5,495.5 C 107.833,496.167 107.833,496.167 106.5,495.5 Z"/></g>
</svg>
